<svg width="32" height="32" viewBox="0 0 32 32" fill="none"
  xmlns="http://www.w3.org/2000/svg">
  <path d="M16 0C18.1011 2.5056e-08 20.1817 0.413852 22.1229 1.21793C24.0641 2.022 25.828 3.20055 27.3137 4.68629C28.7994 6.17203 29.978 7.93586 30.7821 9.87707C31.5861 11.8183 32 13.8989 32 16C32 18.1012 31.5861 20.1817 30.7821 22.1229C29.978 24.0641 28.7994 25.828 27.3137 27.3137C25.828 28.7994 24.0641 29.978 22.1229 30.7821C20.1817 31.5861 18.1011 32 16 32L16 16V0Z" fill="#5B9DFF"/>
  <path d="M12 28C8.8174 28 5.76515 26.7357 3.51471 24.4853C1.26428 22.2348 -2.74314e-06 19.1826 -2.09815e-06 16C-1.45315e-06 12.8174 1.26428 9.76515 3.51472 7.51472C5.76516 5.26428 8.8174 4 12 4L12 16L12 28Z" fill="#B0B0B0"/>
</svg>
