<svg width="196" height="40" viewBox="0 0 196 40" fill="none"
  xmlns="http://www.w3.org/2000/svg">
  <path d="M16 4C18.1011 4 20.1817 4.41385 22.1229 5.21793C24.0641 6.022 25.828 7.20055 27.3137 8.68629C28.7994 10.172 29.978 11.9359 30.7821 13.8771C31.5861 15.8183 32 17.8989 32 20C32 22.1012 31.5861 24.1817 30.7821 26.1229C29.978 28.0641 28.7994 29.828 27.3137 31.3137C25.828 32.7994 24.0641 33.978 22.1229 34.7821C20.1817 35.5861 18.1011 36 16 36L16 20V4Z" fill="#5B9DFF"/>
  <path d="M12 32C8.8174 32 5.76515 30.7357 3.51471 28.4853C1.26428 26.2348 -2.74314e-06 23.1826 -2.09815e-06 20C-1.45315e-06 16.8174 1.26428 13.7652 3.51472 11.5147C5.76516 9.26428 8.8174 8 12 8L12 20L12 32Z" fill="#B0B0B0"/>
  <path d="M57.664 25.032C57.1947 25.032 56.8 24.8827 56.48 24.584C56.1813 24.264 56.032 23.8693 56.032 23.4V15.528C56.032 14.312 55.808 13.32 55.36 12.552C54.912 11.784 54.304 11.2187 53.536 10.856C52.7893 10.472 51.9253 10.28 50.944 10.28C50.048 10.28 49.2373 10.4613 48.512 10.824C47.7867 11.1867 47.2107 11.6773 46.784 12.296C46.3573 12.8933 46.144 13.5867 46.144 14.376H44.128C44.128 13.032 44.448 11.8373 45.088 10.792C45.7493 9.72533 46.6453 8.88267 47.776 8.264C48.9067 7.64533 50.176 7.336 51.584 7.336C53.056 7.336 54.368 7.656 55.52 8.296C56.6933 8.91467 57.6107 9.832 58.272 11.048C58.9547 12.264 59.296 13.7573 59.296 15.528V23.4C59.296 23.8693 59.136 24.264 58.816 24.584C58.5173 24.8827 58.1333 25.032 57.664 25.032ZM44.512 25.032C44.0427 25.032 43.648 24.8827 43.328 24.584C43.0293 24.264 42.88 23.8693 42.88 23.4V9.128C42.88 8.63733 43.0293 8.24266 43.328 7.944C43.648 7.64533 44.0427 7.496 44.512 7.496C45.0027 7.496 45.3973 7.64533 45.696 7.944C45.9947 8.24266 46.144 8.63733 46.144 9.128V23.4C46.144 23.8693 45.9947 24.264 45.696 24.584C45.3973 24.8827 45.0027 25.032 44.512 25.032ZM71.2525 7.528C71.5725 7.528 71.8605 7.61333 72.1165 7.784C72.3725 7.95467 72.5752 8.22133 72.7245 8.584L79.3165 22.888C79.5085 23.3147 79.5298 23.6987 79.3805 24.04C79.2312 24.36 78.9752 24.6053 78.6125 24.776C78.1432 24.9893 77.7378 25.0427 77.3965 24.936C77.0552 24.8293 76.7672 24.5627 76.5325 24.136L70.5165 10.472H72.1485L65.9405 24.136C65.7485 24.5413 65.4605 24.808 65.0765 24.936C64.7138 25.0427 64.3085 24.9893 63.8605 24.776C63.4552 24.584 63.1672 24.328 62.9965 24.008C62.8472 23.688 62.8792 23.3147 63.0925 22.888L69.7165 8.584C70.0365 7.88 70.5485 7.528 71.2525 7.528ZM90.7698 25.128C89.2124 25.128 87.8151 24.744 86.5778 23.976C85.3404 23.1867 84.3591 22.1307 83.6338 20.808C82.9298 19.464 82.5778 17.9493 82.5778 16.264C82.5778 14.5787 82.9618 13.064 83.7298 11.72C84.5191 10.376 85.5751 9.32 86.8978 8.552C88.2418 7.76267 89.7458 7.368 91.4098 7.368C93.0738 7.368 94.5671 7.76267 95.8898 8.552C97.2124 9.32 98.2578 10.376 99.0258 11.72C99.8151 13.064 100.21 14.5787 100.21 16.264H98.9618C98.9618 17.9493 98.5991 19.464 97.8738 20.808C97.1698 22.1307 96.1991 23.1867 94.9618 23.976C93.7244 24.744 92.3271 25.128 90.7698 25.128ZM91.4098 22.248C92.4978 22.248 93.4684 21.992 94.3218 21.48C95.1751 20.9467 95.8471 20.232 96.3378 19.336C96.8284 18.4187 97.0738 17.3947 97.0738 16.264C97.0738 15.112 96.8284 14.088 96.3378 13.192C95.8471 12.2747 95.1751 11.56 94.3218 11.048C93.4684 10.5147 92.4978 10.248 91.4098 10.248C90.3431 10.248 89.3724 10.5147 88.4978 11.048C87.6444 11.56 86.9618 12.2747 86.4498 13.192C85.9591 14.088 85.7138 15.112 85.7138 16.264C85.7138 17.3947 85.9591 18.4187 86.4498 19.336C86.9618 20.232 87.6444 20.9467 88.4978 21.48C89.3724 21.992 90.3431 22.248 91.4098 22.248ZM98.5778 25.032C98.1084 25.032 97.7138 24.8827 97.3938 24.584C97.0951 24.264 96.9458 23.8693 96.9458 23.4V18.504L97.5538 15.112L100.21 16.264V23.4C100.21 23.8693 100.05 24.264 99.7298 24.584C99.4311 24.8827 99.0471 25.032 98.5778 25.032ZM119.788 25C119.318 25 118.924 24.8507 118.604 24.552C118.305 24.232 118.156 23.8373 118.156 23.368V9.128C118.156 8.63733 118.305 8.24266 118.604 7.944C118.924 7.64533 119.318 7.496 119.788 7.496C120.278 7.496 120.662 7.64533 120.94 7.944C121.217 8.24266 121.356 8.63733 121.356 9.128V23.368C121.356 23.8373 121.217 24.232 120.94 24.552C120.662 24.8507 120.278 25 119.788 25ZM106.636 25C106.166 25 105.782 24.8507 105.484 24.552C105.206 24.232 105.068 23.8373 105.068 23.368V9.128C105.068 8.63733 105.206 8.24266 105.484 7.944C105.782 7.64533 106.166 7.496 106.636 7.496C107.126 7.496 107.521 7.64533 107.82 7.944C108.118 8.24266 108.268 8.63733 108.268 9.128V23.368C108.268 23.8373 108.118 24.232 107.82 24.552C107.521 24.8507 107.126 25 106.636 25ZM107.852 17.352V14.472H119.083V17.352H107.852ZM135.354 25.128C133.583 25.128 132.005 24.7547 130.618 24.008C129.253 23.24 128.175 22.1947 127.386 20.872C126.618 19.528 126.234 17.992 126.234 16.264C126.234 14.5147 126.597 12.9787 127.322 11.656C128.069 10.312 129.093 9.26667 130.394 8.52C131.695 7.752 133.189 7.368 134.874 7.368C136.538 7.368 137.967 7.74133 139.162 8.488C140.357 9.21333 141.263 10.2267 141.882 11.528C142.522 12.808 142.842 14.2907 142.842 15.976C142.842 16.3813 142.703 16.7227 142.426 17C142.149 17.256 141.797 17.384 141.37 17.384H128.474V14.824H141.274L139.962 15.72C139.941 14.6533 139.727 13.704 139.322 12.872C138.917 12.0187 138.341 11.3467 137.594 10.856C136.847 10.3653 135.941 10.12 134.874 10.12C133.658 10.12 132.613 10.3867 131.738 10.92C130.885 11.4533 130.234 12.1893 129.786 13.128C129.338 14.0453 129.114 15.0907 129.114 16.264C129.114 17.4373 129.381 18.4827 129.914 19.4C130.447 20.3173 131.183 21.0427 132.122 21.576C133.061 22.1093 134.138 22.376 135.354 22.376C136.015 22.376 136.687 22.2587 137.37 22.024C138.074 21.768 138.639 21.48 139.066 21.16C139.386 20.9253 139.727 20.808 140.09 20.808C140.474 20.7867 140.805 20.8933 141.082 21.128C141.445 21.448 141.637 21.8 141.658 22.184C141.679 22.568 141.509 22.8987 141.146 23.176C140.421 23.752 139.514 24.2213 138.426 24.584C137.359 24.9467 136.335 25.128 135.354 25.128ZM169.981 25.032C169.512 25.032 169.117 24.8827 168.797 24.584C168.498 24.264 168.349 23.8693 168.349 23.4V14.248C168.349 12.904 168.018 11.912 167.357 11.272C166.696 10.6107 165.832 10.28 164.765 10.28C163.656 10.28 162.738 10.664 162.013 11.432C161.309 12.2 160.957 13.1813 160.957 14.376H158.301C158.301 12.9893 158.6 11.7733 159.197 10.728C159.794 9.66133 160.626 8.82933 161.693 8.232C162.781 7.63467 164.018 7.336 165.405 7.336C166.621 7.336 167.698 7.60267 168.637 8.136C169.576 8.66933 170.301 9.45867 170.813 10.504C171.346 11.528 171.613 12.776 171.613 14.248V23.4C171.613 23.8693 171.464 24.264 171.165 24.584C170.866 24.8827 170.472 25.032 169.981 25.032ZM148.637 25.032C148.168 25.032 147.773 24.8827 147.453 24.584C147.154 24.264 147.005 23.8693 147.005 23.4V9.16C147.005 8.66933 147.154 8.27467 147.453 7.976C147.773 7.67733 148.168 7.528 148.637 7.528C149.128 7.528 149.522 7.67733 149.821 7.976C150.12 8.27467 150.269 8.66933 150.269 9.16V23.4C150.269 23.8693 150.12 24.264 149.821 24.584C149.522 24.8827 149.128 25.032 148.637 25.032ZM159.325 25.032C158.856 25.032 158.461 24.8827 158.141 24.584C157.842 24.264 157.693 23.8693 157.693 23.4V14.248C157.693 12.904 157.362 11.912 156.701 11.272C156.04 10.6107 155.176 10.28 154.109 10.28C153 10.28 152.082 10.664 151.357 11.432C150.632 12.2 150.269 13.1813 150.269 14.376H148.253C148.253 12.9893 148.53 11.7733 149.085 10.728C149.64 9.66133 150.408 8.82933 151.389 8.232C152.37 7.63467 153.49 7.336 154.749 7.336C155.965 7.336 157.042 7.60267 157.981 8.136C158.92 8.66933 159.645 9.45867 160.157 10.504C160.69 11.528 160.957 12.776 160.957 14.248V23.4C160.957 23.8693 160.808 24.264 160.509 24.584C160.21 24.8827 159.816 25.032 159.325 25.032ZM184.332 25.128C182.775 25.128 181.378 24.744 180.14 23.976C178.903 23.1867 177.922 22.1307 177.196 20.808C176.492 19.464 176.14 17.9493 176.14 16.264C176.14 14.5787 176.524 13.064 177.292 11.72C178.082 10.376 179.138 9.32 180.46 8.552C181.804 7.76267 183.308 7.368 184.972 7.368C186.636 7.368 188.13 7.76267 189.452 8.552C190.775 9.32 191.82 10.376 192.588 11.72C193.378 13.064 193.772 14.5787 193.772 16.264H192.524C192.524 17.9493 192.162 19.464 191.436 20.808C190.732 22.1307 189.762 23.1867 188.524 23.976C187.287 24.744 185.89 25.128 184.332 25.128ZM184.972 22.248C186.06 22.248 187.031 21.992 187.884 21.48C188.738 20.9467 189.41 20.232 189.9 19.336C190.391 18.4187 190.636 17.3947 190.636 16.264C190.636 15.112 190.391 14.088 189.9 13.192C189.41 12.2747 188.738 11.56 187.884 11.048C187.031 10.5147 186.06 10.248 184.972 10.248C183.906 10.248 182.935 10.5147 182.06 11.048C181.207 11.56 180.524 12.2747 180.012 13.192C179.522 14.088 179.276 15.112 179.276 16.264C179.276 17.3947 179.522 18.4187 180.012 19.336C180.524 20.232 181.207 20.9467 182.06 21.48C182.935 21.992 183.906 22.248 184.972 22.248ZM192.14 25.032C191.671 25.032 191.276 24.8827 190.956 24.584C190.658 24.264 190.508 23.8693 190.508 23.4V18.504L191.116 15.112L193.772 16.264V23.4C193.772 23.8693 193.612 24.264 193.292 24.584C192.994 24.8827 192.61 25.032 192.14 25.032Z" fill="black" fill-opacity="0.8"/>
  <path d="M45.7784 28L46.2898 28.6136C46.0909 28.8068 45.8608 28.9418 45.5994 29.0185C45.3381 29.0952 45.0426 29.142 44.7131 29.1591C44.3835 29.1761 44.017 29.1932 43.6136 29.2102C43.1591 29.2273 42.7827 29.3381 42.4844 29.5426C42.1861 29.7472 41.956 30.0426 41.794 30.429C41.6321 30.8153 41.5284 31.2898 41.483 31.8523H41.5682C41.7898 31.4432 42.0966 31.142 42.4886 30.9489C42.8807 30.7557 43.3011 30.6591 43.75 30.6591C44.2614 30.6591 44.7216 30.7784 45.1307 31.017C45.5398 31.2557 45.8636 31.6094 46.1023 32.0781C46.3409 32.5469 46.4602 33.125 46.4602 33.8125C46.4602 34.4972 46.3381 35.0881 46.0938 35.5852C45.8523 36.0824 45.5128 36.4659 45.0753 36.7358C44.6406 37.0028 44.1307 37.1364 43.5455 37.1364C42.9602 37.1364 42.4474 36.9986 42.0071 36.723C41.5668 36.4446 41.2244 36.0327 40.9801 35.4872C40.7358 34.9389 40.6136 34.2614 40.6136 33.4545V32.7557C40.6136 31.2983 40.8608 30.1932 41.3551 29.4403C41.8523 28.6875 42.5994 28.2983 43.5966 28.2727C43.9489 28.2614 44.2628 28.2585 44.5384 28.2642C44.8139 28.2699 45.054 28.2571 45.2585 28.2259C45.4631 28.1946 45.6364 28.1193 45.7784 28ZM43.5455 36.233C43.9403 36.233 44.2798 36.1335 44.5639 35.9347C44.8509 35.7358 45.071 35.456 45.2244 35.0952C45.3778 34.7315 45.4545 34.304 45.4545 33.8125C45.4545 33.3352 45.3764 32.929 45.2202 32.5938C45.0668 32.2585 44.8466 32.0028 44.5597 31.8267C44.2727 31.6506 43.929 31.5625 43.5284 31.5625C43.2358 31.5625 42.973 31.6122 42.7401 31.7116C42.5071 31.8111 42.3082 31.9574 42.1435 32.1506C41.9787 32.3437 41.8509 32.5795 41.7599 32.858C41.6719 33.1364 41.625 33.4545 41.6193 33.8125C41.6193 34.5455 41.7912 35.1321 42.1349 35.5724C42.4787 36.0128 42.9489 36.233 43.5455 36.233ZM48.6463 39.4545C48.4759 39.4545 48.3239 39.4403 48.1903 39.4119C48.0568 39.3864 47.9645 39.3608 47.9134 39.3352L48.169 38.4489C48.4134 38.5114 48.6293 38.5341 48.8168 38.517C49.0043 38.5 49.1705 38.4162 49.3153 38.2656C49.4631 38.1179 49.598 37.8778 49.7202 37.5455L49.9077 37.0341L47.4872 30.4545H48.5781L50.3849 35.6705H50.4531L52.2599 30.4545H53.3509L50.5724 37.9545C50.4474 38.2926 50.2926 38.5724 50.108 38.794C49.9233 39.0185 49.7088 39.1847 49.4645 39.2926C49.223 39.4006 48.9503 39.4545 48.6463 39.4545ZM55.4283 30.4545L56.9964 33.1307L58.5646 30.4545H59.7237L57.6101 33.7273L59.7237 37H58.5646L56.9964 34.4602L55.4283 37H54.2692L56.3487 33.7273L54.2692 30.4545H55.4283ZM65.1985 30.4545V31.392H62.1644V37H61.1587V30.4545H65.1985ZM68.2528 37.1534C67.8381 37.1534 67.4616 37.0753 67.1236 36.919C66.7855 36.7599 66.517 36.5312 66.3182 36.233C66.1193 35.9318 66.0199 35.5682 66.0199 35.142C66.0199 34.767 66.0938 34.4631 66.2415 34.2301C66.3892 33.9943 66.5866 33.8097 66.8338 33.6761C67.081 33.5426 67.3537 33.4432 67.652 33.3778C67.9531 33.3097 68.2557 33.2557 68.5597 33.2159C68.9574 33.1648 69.2798 33.1264 69.527 33.1009C69.777 33.0724 69.9588 33.0256 70.0724 32.9602C70.1889 32.8949 70.2472 32.7812 70.2472 32.6193V32.5852C70.2472 32.1648 70.1321 31.8381 69.902 31.6051C69.6747 31.3722 69.3295 31.2557 68.8665 31.2557C68.3864 31.2557 68.0099 31.3608 67.7372 31.571C67.4645 31.7812 67.2727 32.0057 67.1619 32.2443L66.2074 31.9034C66.3778 31.5057 66.6051 31.196 66.8892 30.9744C67.1761 30.75 67.4886 30.5937 67.8267 30.5057C68.1676 30.4148 68.5028 30.3693 68.8324 30.3693C69.0426 30.3693 69.2841 30.3949 69.5568 30.446C69.8324 30.4943 70.098 30.5952 70.3537 30.7486C70.6122 30.902 70.8267 31.1335 70.9972 31.4432C71.1676 31.7528 71.2528 32.1676 71.2528 32.6875V37H70.2472V36.1136H70.196C70.1278 36.2557 70.0142 36.4077 69.8551 36.5696C69.696 36.7315 69.4844 36.8693 69.2202 36.983C68.956 37.0966 68.6335 37.1534 68.2528 37.1534ZM68.4062 36.25C68.804 36.25 69.1392 36.1719 69.4119 36.0156C69.6875 35.8594 69.8949 35.6577 70.0341 35.4105C70.1761 35.1634 70.2472 34.9034 70.2472 34.6307V33.7102C70.2045 33.7614 70.1108 33.8082 69.9659 33.8509C69.8239 33.8906 69.6591 33.9261 69.4716 33.9574C69.2869 33.9858 69.1065 34.0114 68.9304 34.0341C68.7571 34.054 68.6165 34.071 68.5085 34.0852C68.2472 34.1193 68.0028 34.1747 67.7756 34.2514C67.5511 34.3253 67.3693 34.4375 67.2301 34.5881C67.0938 34.7358 67.0256 34.9375 67.0256 35.1932C67.0256 35.5426 67.1548 35.8068 67.4134 35.9858C67.6747 36.1619 68.0057 36.25 68.4062 36.25ZM72.5089 37V36.0625H72.7475C72.9435 36.0625 73.1069 36.0241 73.2376 35.9474C73.3683 35.8679 73.4734 35.7301 73.5529 35.5341C73.6353 35.3352 73.6978 35.0597 73.7404 34.7074C73.7859 34.3523 73.8185 33.9006 73.8384 33.3523L73.9577 30.4545H78.3214V37H77.3157V31.392H74.9123L74.81 33.7273C74.7873 34.2642 74.739 34.7372 74.6651 35.1463C74.5941 35.5526 74.4847 35.8935 74.337 36.169C74.1921 36.4446 73.9989 36.652 73.7575 36.7912C73.516 36.9304 73.2134 37 72.8498 37H72.5089ZM79.2759 31.392V30.4545H84.5941V31.392H82.4464V37H81.4407V31.392H79.2759ZM88.4656 37.1364C87.8349 37.1364 87.2908 36.9972 86.8335 36.7188C86.3789 36.4375 86.0281 36.0455 85.7809 35.5426C85.5366 35.0369 85.4144 34.4489 85.4144 33.7784C85.4144 33.108 85.5366 32.517 85.7809 32.0057C86.0281 31.4915 86.3718 31.0909 86.8121 30.804C87.2553 30.5142 87.7724 30.3693 88.3633 30.3693C88.7042 30.3693 89.0408 30.4261 89.3732 30.5398C89.7056 30.6534 90.0082 30.8381 90.2809 31.0938C90.5536 31.3466 90.771 31.6818 90.9329 32.0994C91.0948 32.517 91.1758 33.0312 91.1758 33.642V34.0682H86.1303V33.1989H90.1531C90.1531 32.8295 90.0792 32.5 89.9315 32.2102C89.7866 31.9205 89.5792 31.6918 89.3093 31.5241C89.0423 31.3565 88.7269 31.2727 88.3633 31.2727C87.9627 31.2727 87.6161 31.3722 87.3235 31.571C87.0337 31.767 86.8107 32.0227 86.6545 32.3381C86.4982 32.6534 86.4201 32.9915 86.4201 33.3523V33.9318C86.4201 34.4261 86.5053 34.8452 86.6758 35.1889C86.8491 35.5298 87.0891 35.7898 87.396 35.9688C87.7028 36.1449 88.0593 36.233 88.4656 36.233C88.7298 36.233 88.9684 36.196 89.1815 36.1222C89.3974 36.0455 89.5835 35.9318 89.7397 35.7812C89.896 35.6278 90.0167 35.4375 90.1019 35.2102L91.0735 35.483C90.9712 35.8125 90.7994 36.1023 90.5579 36.3523C90.3164 36.5994 90.0181 36.7926 89.663 36.9318C89.3079 37.0682 88.9087 37.1364 88.4656 37.1364ZM92.7056 39.4545V30.4545H93.6772V31.4943H93.7965C93.8704 31.3807 93.9727 31.2358 94.1033 31.0597C94.2369 30.8807 94.4272 30.7216 94.6744 30.5824C94.9244 30.4403 95.2624 30.3693 95.6886 30.3693C96.2397 30.3693 96.7255 30.5071 97.146 30.7827C97.5664 31.0582 97.8945 31.4489 98.1303 31.9545C98.3661 32.4602 98.484 33.0568 98.484 33.7443C98.484 34.4375 98.3661 35.0384 98.1303 35.5469C97.8945 36.0526 97.5678 36.4446 97.1502 36.723C96.7326 36.9986 96.2511 37.1364 95.7056 37.1364C95.2852 37.1364 94.9485 37.0668 94.6957 36.9276C94.4428 36.7855 94.2482 36.625 94.1119 36.446C93.9755 36.2642 93.8704 36.1136 93.7965 35.9943H93.7113V39.4545H92.7056ZM93.6942 33.7273C93.6942 34.2216 93.7667 34.6577 93.9116 35.0355C94.0565 35.4105 94.2681 35.7045 94.5465 35.9176C94.8249 36.1278 95.1658 36.233 95.5692 36.233C95.9897 36.233 96.3406 36.1222 96.6218 35.9006C96.9059 35.6761 97.119 35.375 97.261 34.9972C97.4059 34.6165 97.4783 34.1932 97.4783 33.7273C97.4783 33.267 97.4073 32.8523 97.2653 32.483C97.1261 32.1108 96.9144 31.8168 96.6303 31.6009C96.3491 31.3821 95.9954 31.2727 95.5692 31.2727C95.1602 31.2727 94.8164 31.3764 94.538 31.5838C94.2596 31.7884 94.0494 32.0753 93.9073 32.4446C93.7653 32.8111 93.6942 33.2386 93.6942 33.7273ZM102.677 37.1364C102.064 37.1364 101.535 36.9915 101.092 36.7017C100.649 36.4119 100.308 36.0128 100.069 35.5043C99.8306 34.9957 99.7113 34.4148 99.7113 33.7614C99.7113 33.0966 99.8335 32.5099 100.078 32.0014C100.325 31.4901 100.669 31.0909 101.109 30.804C101.552 30.5142 102.069 30.3693 102.66 30.3693C103.12 30.3693 103.535 30.4545 103.904 30.625C104.274 30.7955 104.576 31.0341 104.812 31.3409C105.048 31.6477 105.194 32.0057 105.251 32.4148H104.245C104.169 32.1165 103.998 31.8523 103.734 31.6222C103.473 31.3892 103.12 31.2727 102.677 31.2727C102.285 31.2727 101.941 31.375 101.646 31.5795C101.353 31.7812 101.125 32.0668 100.96 32.4361C100.798 32.8026 100.717 33.233 100.717 33.7273C100.717 34.233 100.797 34.6733 100.956 35.0483C101.118 35.4233 101.345 35.7145 101.637 35.9219C101.933 36.1293 102.279 36.233 102.677 36.233C102.939 36.233 103.176 36.1875 103.389 36.0966C103.602 36.0057 103.782 35.875 103.93 35.7045C104.078 35.5341 104.183 35.3295 104.245 35.0909H105.251C105.194 35.4773 105.054 35.8253 104.829 36.1349C104.608 36.4418 104.314 36.6861 103.947 36.8679C103.583 37.0469 103.16 37.1364 102.677 37.1364ZM106.721 37V30.4545H107.727V33.3011H108.392L110.744 30.4545H112.039L109.397 33.608L112.074 37H110.778L108.63 34.2386H107.727V37H106.721ZM114.172 35.517L117.326 30.4545H118.485V37H117.479V31.9375L114.343 37H113.167V30.4545H114.172V35.517ZM123.071 37.1364C122.44 37.1364 121.896 36.9972 121.439 36.7188C120.984 36.4375 120.634 36.0455 120.386 35.5426C120.142 35.0369 120.02 34.4489 120.02 33.7784C120.02 33.108 120.142 32.517 120.386 32.0057C120.634 31.4915 120.977 31.0909 121.418 30.804C121.861 30.5142 122.378 30.3693 122.969 30.3693C123.31 30.3693 123.646 30.4261 123.979 30.5398C124.311 30.6534 124.614 30.8381 124.886 31.0938C125.159 31.3466 125.376 31.6818 125.538 32.0994C125.7 32.517 125.781 33.0312 125.781 33.642V34.0682H120.736V33.1989H124.759C124.759 32.8295 124.685 32.5 124.537 32.2102C124.392 31.9205 124.185 31.6918 123.915 31.5241C123.648 31.3565 123.332 31.2727 122.969 31.2727C122.568 31.2727 122.222 31.3722 121.929 31.571C121.639 31.767 121.416 32.0227 121.26 32.3381C121.104 32.6534 121.026 32.9915 121.026 33.3523V33.9318C121.026 34.4261 121.111 34.8452 121.281 35.1889C121.455 35.5298 121.695 35.7898 122.001 35.9688C122.308 36.1449 122.665 36.233 123.071 36.233C123.335 36.233 123.574 36.196 123.787 36.1222C124.003 36.0455 124.189 35.9318 124.345 35.7812C124.501 35.6278 124.622 35.4375 124.707 35.2102L125.679 35.483C125.577 35.8125 125.405 36.1023 125.163 36.3523C124.922 36.5994 124.624 36.7926 124.268 36.9318C123.913 37.0682 123.514 37.1364 123.071 37.1364ZM131.334 39.4545C131.163 39.4545 131.011 39.4403 130.878 39.4119C130.744 39.3864 130.652 39.3608 130.601 39.3352L130.857 38.4489C131.101 38.5114 131.317 38.5341 131.504 38.517C131.692 38.5 131.858 38.4162 132.003 38.2656C132.151 38.1179 132.286 37.8778 132.408 37.5455L132.595 37.0341L130.175 30.4545H131.266L133.072 35.6705H133.141L134.947 30.4545H136.038L133.26 37.9545C133.135 38.2926 132.98 38.5724 132.795 38.794C132.611 39.0185 132.396 39.1847 132.152 39.2926C131.911 39.4006 131.638 39.4545 131.334 39.4545ZM139.79 37.1364C139.177 37.1364 138.648 36.9915 138.205 36.7017C137.762 36.4119 137.421 36.0128 137.183 35.5043C136.944 34.9957 136.825 34.4148 136.825 33.7614C136.825 33.0966 136.947 32.5099 137.191 32.0014C137.438 31.4901 137.782 31.0909 138.222 30.804C138.665 30.5142 139.183 30.3693 139.773 30.3693C140.234 30.3693 140.648 30.4545 141.018 30.625C141.387 30.7955 141.69 31.0341 141.925 31.3409C142.161 31.6477 142.308 32.0057 142.364 32.4148H141.359C141.282 32.1165 141.112 31.8523 140.847 31.6222C140.586 31.3892 140.234 31.2727 139.79 31.2727C139.398 31.2727 139.055 31.375 138.759 31.5795C138.467 31.7812 138.238 32.0668 138.073 32.4361C137.911 32.8026 137.83 33.233 137.83 33.7273C137.83 34.233 137.91 34.6733 138.069 35.0483C138.231 35.4233 138.458 35.7145 138.751 35.9219C139.046 36.1293 139.393 36.233 139.79 36.233C140.052 36.233 140.289 36.1875 140.502 36.0966C140.715 36.0057 140.896 35.875 141.043 35.7045C141.191 35.5341 141.296 35.3295 141.359 35.0909H142.364C142.308 35.4773 142.167 35.8253 141.942 36.1349C141.721 36.4418 141.427 36.6861 141.06 36.8679C140.697 37.0469 140.273 37.1364 139.79 37.1364ZM143.255 37V36.0625H143.494C143.69 36.0625 143.853 36.0241 143.984 35.9474C144.114 35.8679 144.219 35.7301 144.299 35.5341C144.381 35.3352 144.444 35.0597 144.487 34.7074C144.532 34.3523 144.565 33.9006 144.585 33.3523L144.704 30.4545H149.067V37H148.062V31.392H145.658L145.556 33.7273C145.533 34.2642 145.485 34.7372 145.411 35.1463C145.34 35.5526 145.231 35.8935 145.083 36.169C144.938 36.4446 144.745 36.652 144.504 36.7912C144.262 36.9304 143.96 37 143.596 37H143.255ZM151.326 39.4545C151.156 39.4545 151.004 39.4403 150.87 39.4119C150.737 39.3864 150.644 39.3608 150.593 39.3352L150.849 38.4489C151.093 38.5114 151.309 38.5341 151.496 38.517C151.684 38.5 151.85 38.4162 151.995 38.2656C152.143 38.1179 152.278 37.8778 152.4 37.5455L152.587 37.0341L150.167 30.4545H151.258L153.065 35.6705H153.133L154.94 30.4545H156.031L153.252 37.9545C153.127 38.2926 152.972 38.5724 152.788 38.794C152.603 39.0185 152.388 39.1847 152.144 39.2926C151.903 39.4006 151.63 39.4545 151.326 39.4545ZM161.398 30.4545V31.392H158.364V37H157.358V30.4545H161.398ZM163.871 35.517L167.025 30.4545H168.184V37H167.178V31.9375L164.042 37H162.866V30.4545H163.871V35.517Z" fill="black" fill-opacity="0.8"/>
</svg>
