<svg width="312" height="240" viewBox="0 0 312 240" fill="none"
  xmlns="http://www.w3.org/2000/svg">
  <g clip-path="url(#clip0_120_108)">
    <path fill-rule="evenodd" clip-rule="evenodd" d="M73.9306 103.388C55.3326 103.388 40.2597 118.461 40.2597 137.055C40.2597 145.028 43.0898 152.744 48.2451 158.826L67.5092 142.5C66.219 140.979 65.5108 139.049 65.5108 137.055C65.5108 132.408 69.2801 128.639 73.9306 128.639V103.388ZM52.7715 163.249C58.7627 168.086 66.2304 170.725 73.9306 170.726C91.9411 170.726 106.762 156.551 107.564 138.557L90.7454 137.808C90.3441 146.803 82.9338 153.89 73.9306 153.89C70.0786 153.89 66.3466 152.57 63.351 150.154L52.7715 163.249ZM107.055 131.035C104.548 117.236 93.7492 106.437 79.9507 103.93L77.8116 115.697C86.7072 117.315 93.6706 124.278 95.2884 133.174L107.055 131.035Z" fill="#59D4E8"/>
    <path fill-rule="evenodd" clip-rule="evenodd" d="M57.9305 230.767C51.4836 226.348 44.4021 223.576 39.9682 216.914C32.4939 205.68 34.1368 189.18 48.7189 184.863C57.126 182.375 65.3594 187.874 73.6419 188.834C88.1862 190.518 106.458 183.918 116.576 173.385C135.328 153.867 111.534 127.494 128.25 106.909C129.485 105.387 130.985 104.027 132.673 103.021C146.062 95.0464 157.245 112.577 170.35 111.508C180.139 110.709 184.192 98.4787 192.984 95.143C209.341 88.9359 230.435 98.5807 232.436 116.93C233.309 124.935 228.765 132.256 229.974 140.223C229.97 140.222 229.966 140.22 229.966 140.219C237.399 154.997 258.961 147.494 266.341 162.471C277.811 185.757 248.563 191.706 239.631 206.437C235.307 213.571 239.805 222.515 238.679 230.408L57.9305 230.767Z" fill="#EEEEEE"/>
    <path d="M237.116 87.1248C237.116 83.9617 237.972 81.394 239.672 79.4229C241.377 77.4518 243.615 76.466 246.373 76.466C249.176 76.466 251.43 77.44 253.135 79.3872C254.841 81.3352 255.691 83.9736 255.691 87.3019V89.8518C255.691 93.0387 254.841 95.6005 253.135 97.5366C251.43 99.472 249.198 100.44 246.434 100.44C243.653 100.44 241.405 99.466 239.688 97.5188C237.972 95.5708 237.116 92.9442 237.116 89.6397V87.1248ZM242.759 89.8518C242.759 91.2685 243.099 92.4077 243.774 93.2693C244.448 94.131 245.337 94.5618 246.434 94.5618C247.531 94.5618 248.402 94.125 249.05 93.2515C249.697 92.378 250.02 91.209 250.02 89.7454V87.1248C250.02 85.7088 249.697 84.5637 249.05 83.6902C248.402 82.8166 247.509 82.3799 246.373 82.3799C245.298 82.3799 244.427 82.8107 243.758 83.6723C243.094 84.534 242.759 85.7319 242.759 87.2669V89.8518ZM257.572 116.128C257.572 112.94 258.433 110.373 260.16 108.425C261.882 106.478 264.114 105.504 266.862 105.504C269.642 105.504 271.89 106.466 273.607 108.39C275.318 110.315 276.173 112.964 276.173 116.34V118.89C276.173 122.054 275.334 124.609 273.651 126.557C271.962 128.504 269.719 129.478 266.916 129.478C264.098 129.478 261.833 128.498 260.127 126.539C258.427 124.58 257.572 121.982 257.572 118.749V116.128ZM263.215 118.89C263.215 120.188 263.566 121.298 264.273 122.219C264.981 123.139 265.858 123.6 266.916 123.6C269.307 123.6 270.503 122.006 270.503 118.819V116.128C270.503 114.711 270.168 113.572 269.505 112.71C268.841 111.849 267.958 111.418 266.862 111.418C265.759 111.418 264.882 111.849 264.213 112.71C263.549 113.572 263.215 114.747 263.215 116.234V118.89ZM248.106 124.91L243.966 122.219L264.86 81.9193L269.006 84.6106L248.106 124.91Z" fill="#59D4E8"/>
    <path fill-rule="evenodd" clip-rule="evenodd" d="M231.038 230.098C231.263 227.186 232.236 224.286 233.157 221.535C235.615 214.211 239.156 207.635 245.431 202.912C248.479 200.619 252.614 198.471 256.567 199.013C258.439 199.269 260.528 200.35 260.434 202.514C260.273 206.383 255.633 209.405 252.797 211.286C245.868 215.884 233.004 220.864 231.038 230.098Z" fill="#39BDC8"/>
    <mask id="mask0_120_108" style="mask-type:luminance" maskUnits="userSpaceOnUse" x="231" y="198" width="30" height="33">
      <path d="M231.038 230.098C231.263 227.186 232.236 224.286 233.157 221.535C235.615 214.211 239.156 207.635 245.431 202.912C248.479 200.619 252.614 198.471 256.567 199.013C258.439 199.269 260.528 200.35 260.434 202.514C260.273 206.383 255.633 209.405 252.797 211.286C245.868 215.884 233.004 220.864 231.038 230.098Z" fill="white"/>
    </mask>
    <g mask="url(#mask0_120_108)">
      <path fill-rule="evenodd" clip-rule="evenodd" d="M258.734 197.022C259.264 198.345 259.04 199.911 258.764 201.262C258.52 202.481 258.178 203.721 257.55 204.802C255.275 208.709 250.491 210.352 246.257 210.995C244.344 211.285 241.279 211.479 239.779 209.908C238.749 208.827 239.493 207.786 239.555 206.572C239.57 206.251 239.315 206.174 239.044 206.256C237.581 206.684 236.326 208.771 235.54 209.929C233.184 213.423 231.679 217.651 231.057 221.809C230.837 223.272 230.511 225.318 231.454 226.614C232.638 228.241 235.331 226.996 236.703 226.353C237.101 226.165 237.499 225.966 237.892 225.762C238.346 225.527 238.8 225.282 239.243 225.037C239.942 224.655 240.626 224.247 241.304 223.839C245.451 221.36 265.268 211.061 267.88 206.19C270.604 201.104 263.442 198.748 258.734 197.022Z" fill="#477D82"/>
    </g>
    <path fill-rule="evenodd" clip-rule="evenodd" d="M239.717 192.933C241.326 191.395 243.353 190.244 245.275 189.152C250.395 186.247 255.749 184.316 261.711 184.829C264.607 185.078 268.046 185.962 270.013 188.28C270.945 189.378 271.581 191.054 270.427 192.234C268.367 194.347 264.197 193.702 261.631 193.326C255.361 192.411 245.529 188.693 239.717 192.933Z" fill="#39BDC8"/>
    <mask id="mask1_120_108" style="mask-type:luminance" maskUnits="userSpaceOnUse" x="239" y="184" width="33" height="10">
      <path d="M239.717 192.933C241.326 191.395 243.353 190.244 245.275 189.152C250.395 186.247 255.749 184.316 261.711 184.829C264.607 185.078 268.046 185.962 270.013 188.28C270.945 189.378 271.581 191.054 270.427 192.234C268.367 194.347 264.197 193.702 261.631 193.326C255.361 192.411 245.529 188.693 239.717 192.933Z" fill="white"/>
    </mask>
    <g mask="url(#mask1_120_108)">
      <path fill-rule="evenodd" clip-rule="evenodd" d="M272.255 188.253C271.883 189.273 270.96 190.048 270.116 190.674C269.357 191.242 268.532 191.771 267.626 192.065C264.348 193.125 260.798 191.624 258.069 189.835C256.836 189.027 254.998 187.577 254.946 185.923C254.911 184.786 255.863 184.574 256.516 183.916C256.688 183.742 256.582 183.569 256.387 183.477C255.338 182.976 253.565 183.521 252.531 183.779C249.416 184.563 246.412 186.197 243.944 188.239C243.075 188.958 241.849 189.952 241.726 191.167C241.57 192.693 243.731 193.356 244.836 193.69C245.158 193.785 245.485 193.874 245.812 193.958C246.188 194.056 246.571 194.148 246.947 194.235C247.538 194.373 248.133 194.489 248.726 194.603C252.34 195.306 268.822 199.542 272.781 198.107C276.914 196.607 274.049 191.627 272.255 188.253Z" fill="#477D82"/>
    </g>
    <path fill-rule="evenodd" clip-rule="evenodd" d="M232.455 202.24C231.772 200.429 231.541 198.417 231.321 196.507C230.74 191.423 231.018 186.483 233.457 181.888C234.643 179.656 236.521 177.206 239.044 176.421C240.24 176.049 241.796 176.111 242.348 177.436C243.337 179.803 241.402 182.919 240.228 184.844C237.362 189.548 231.041 196.148 232.455 202.24Z" fill="#39BDC8"/>
    <mask id="mask2_120_108" style="mask-type:luminance" maskUnits="userSpaceOnUse" x="231" y="176" width="12" height="27">
      <path d="M232.455 202.24C231.772 200.429 231.541 198.417 231.321 196.507C230.74 191.423 231.018 186.483 233.457 181.888C234.643 179.656 236.521 177.206 239.044 176.421C240.24 176.049 241.796 176.111 242.348 177.436C243.337 179.803 241.402 182.919 240.228 184.844C237.362 189.548 231.041 196.148 232.455 202.24Z" fill="white"/>
    </mask>
    <g mask="url(#mask2_120_108)">
      <path fill-rule="evenodd" clip-rule="evenodd" d="M239.786 174.619C240.475 175.263 240.78 176.266 240.995 177.154C241.19 177.954 241.333 178.794 241.26 179.619C240.992 182.602 238.582 184.931 236.223 186.505C235.156 187.217 233.371 188.194 232.031 187.672C231.109 187.312 231.263 186.479 230.959 185.733C230.878 185.536 230.704 185.562 230.564 185.687C229.806 186.355 229.639 187.959 229.493 188.874C229.06 191.632 229.344 194.592 230.138 197.261C230.418 198.201 230.796 199.52 231.726 200.032C232.893 200.677 234.159 199.174 234.802 198.403C234.988 198.178 235.171 197.947 235.349 197.714C235.556 197.446 235.759 197.171 235.957 196.9C236.269 196.474 236.564 196.037 236.857 195.602C238.649 192.95 247.648 181.207 247.847 177.551C248.054 173.735 243.095 174.332 239.786 174.619Z" fill="#477D82"/>
    </g>
    <path fill-rule="evenodd" clip-rule="evenodd" d="M228.908 230.098C228.683 227.186 227.711 224.286 226.789 221.535C224.331 214.211 220.79 207.635 214.515 202.912C211.467 200.619 207.332 198.471 203.379 199.013C201.507 199.269 199.418 200.35 199.512 202.514C199.673 206.383 204.313 209.405 207.149 211.286C214.078 215.884 226.942 220.864 228.908 230.098Z" fill="#39BDC8"/>
    <mask id="mask3_120_108" style="mask-type:luminance" maskUnits="userSpaceOnUse" x="199" y="198" width="30" height="33">
      <path d="M228.908 230.098C228.683 227.186 227.711 224.286 226.789 221.535C224.331 214.211 220.79 207.635 214.515 202.912C211.467 200.619 207.332 198.471 203.379 199.013C201.507 199.269 199.418 200.35 199.512 202.514C199.673 206.383 204.313 209.405 207.149 211.286C214.078 215.884 226.942 220.864 228.908 230.098Z" fill="white"/>
    </mask>
    <g mask="url(#mask3_120_108)">
      <path fill-rule="evenodd" clip-rule="evenodd" d="M201.212 197.022C200.682 198.345 200.906 199.911 201.182 201.262C201.427 202.481 201.768 203.721 202.396 204.802C204.671 208.709 209.455 210.352 213.689 210.995C215.602 211.285 218.668 211.479 220.167 209.908C221.198 208.827 220.453 207.786 220.392 206.572C220.376 206.251 220.631 206.174 220.902 206.256C222.366 206.684 223.62 208.771 224.406 209.929C226.763 213.423 228.267 217.651 228.89 221.809C229.109 223.272 229.435 225.318 228.492 226.614C227.308 228.241 224.615 226.996 223.243 226.353C222.845 226.165 222.447 225.966 222.055 225.762C221.601 225.527 221.147 225.282 220.703 225.037C220.004 224.655 219.32 224.247 218.642 223.839C214.495 221.36 194.678 211.061 192.067 206.19C189.343 201.104 196.504 198.748 201.212 197.022Z" fill="#477D82"/>
    </g>
    <path fill-rule="evenodd" clip-rule="evenodd" d="M231.962 228.657C231.816 223.172 231.472 217.27 232.103 211.61C232.706 206.251 234.181 201.106 237.712 196.832C241.537 192.197 246.988 189.289 251.871 185.908C257.306 182.142 262.065 177.831 263.896 170.724C264.453 168.581 264.662 166.354 264.448 164.151C264.217 161.803 263.439 159.538 262.398 157.421C261.896 156.4 260.657 155.981 259.638 156.484C258.618 156.987 258.196 158.224 258.703 159.244C259.525 160.917 260.162 162.7 260.347 164.557C260.516 166.279 260.342 168.019 259.908 169.694C258.342 175.749 254.158 179.312 249.523 182.521C244.336 186.114 238.597 189.282 234.53 194.207C226.629 203.785 227.53 217.139 227.84 228.766C227.873 229.906 228.82 230.805 229.957 230.772C231.095 230.745 231.99 229.797 231.962 228.657Z" fill="#39BDC8"/>
    <mask id="mask4_120_108" style="mask-type:luminance" maskUnits="userSpaceOnUse" x="227" y="156" width="38" height="75">
      <path d="M231.962 228.657C231.816 223.172 231.472 217.27 232.103 211.61C232.706 206.251 234.181 201.106 237.712 196.832C241.537 192.197 246.988 189.289 251.871 185.908C257.306 182.142 262.065 177.831 263.896 170.724C264.453 168.581 264.662 166.354 264.448 164.151C264.217 161.803 263.439 159.538 262.398 157.421C261.896 156.4 260.657 155.981 259.638 156.484C258.618 156.987 258.196 158.224 258.703 159.244C259.525 160.917 260.162 162.7 260.347 164.557C260.516 166.279 260.342 168.019 259.908 169.694C258.342 175.749 254.158 179.312 249.523 182.521C244.336 186.114 238.597 189.282 234.53 194.207C226.629 203.785 227.53 217.139 227.84 228.766C227.873 229.906 228.82 230.805 229.957 230.772C231.095 230.745 231.99 229.797 231.962 228.657Z" fill="white"/>
    </mask>
    <g mask="url(#mask4_120_108)">
      <path fill-rule="evenodd" clip-rule="evenodd" d="M253.309 153.569C256.436 156.129 257.636 171.876 259.895 175.169C260.43 175.957 261.255 179.04 262.332 179.217C263.166 179.352 263.879 178.141 264.233 177.579C265.492 175.592 266.187 173.179 266.789 170.93C268.356 165.129 269.22 158.142 267.458 152.297C267.163 151.309 266.765 150.315 266.21 149.443C263.776 145.64 259.337 147.554 256.669 149.936C255.437 151.039 254.345 152.279 253.309 153.569Z" fill="#477D82"/>
    </g>
    <path d="M256.574 169.347C267.256 169.347 275.915 160.688 275.915 150.006C275.915 139.324 267.256 130.665 256.574 130.665C245.892 130.665 237.232 139.324 237.232 150.006C237.232 160.688 245.892 169.347 256.574 169.347Z" fill="#F2058C"/>
    <mask id="mask5_120_108" style="mask-type:luminance" maskUnits="userSpaceOnUse" x="237" y="130" width="39" height="40">
      <path d="M256.574 169.347C267.256 169.347 275.915 160.688 275.915 150.006C275.915 139.324 267.256 130.665 256.574 130.665C245.892 130.665 237.232 139.324 237.232 150.006C237.232 160.688 245.892 169.347 256.574 169.347Z" fill="white"/>
    </mask>
    <g mask="url(#mask5_120_108)">
      <path fill-rule="evenodd" clip-rule="evenodd" d="M272.341 134.852C274.269 144.37 273.652 155.872 264.96 161.937C263.299 163.089 261.486 164.004 259.574 164.656C254.769 166.299 249.005 166.273 244.393 164.039C243.036 163.386 241.746 162.555 240.649 161.519C239.961 160.871 239.277 159.79 238.42 159.366C237.568 158.943 237.334 160.025 237.385 160.637C237.568 162.942 239.129 165.227 240.532 166.962C245.929 173.639 254.84 175.597 262.889 172.996C276.769 168.512 284.032 147.522 272.341 134.852Z" fill="#D9007B"/>
    </g>
    <path fill-rule="evenodd" clip-rule="evenodd" d="M269.931 121.371L270.696 126.287L275.614 127.051L270.696 127.815L269.931 132.731L269.167 127.815L264.253 127.051L269.167 126.287L269.931 121.371Z" fill="#F2058C"/>
    <path fill-rule="evenodd" clip-rule="evenodd" d="M277.605 118.036L278.054 120.922L280.941 121.371L278.054 121.819L277.605 124.705L277.156 121.819L274.272 121.371L277.156 120.922L277.605 118.036Z" fill="#F2058C"/>
    <path fill-rule="evenodd" clip-rule="evenodd" d="M277.605 130.58L278.054 133.466L280.941 133.915L278.054 134.363L277.605 137.249L277.156 134.363L274.272 133.915L277.156 133.466L277.605 130.58Z" fill="#F2058C"/>
    <path d="M261.191 152.664C260.834 152.046 260.379 151.653 259.824 151.486C259.271 151.318 258.494 151.316 257.492 151.482C256.493 151.647 255.606 151.749 254.835 151.788C254.062 151.827 253.349 151.771 252.694 151.622C252.044 151.473 251.431 151.193 250.893 150.799C250.346 150.401 249.86 149.832 249.433 149.093C248.698 147.819 248.502 146.54 248.847 145.255C249.191 143.971 249.997 142.872 251.269 141.957L249.872 139.537L251.681 138.493L253.097 140.946C254.542 140.364 255.908 140.317 257.194 140.805C258.481 141.294 259.549 142.273 260.398 143.743L257.13 145.63C256.607 144.725 256.029 144.157 255.398 143.923C254.766 143.69 254.136 143.754 253.512 144.115C252.893 144.472 252.516 144.924 252.378 145.471C252.241 146.017 252.352 146.599 252.709 147.218C253.039 147.79 253.47 148.155 254.003 148.31C254.535 148.465 255.356 148.464 256.466 148.306C257.575 148.147 258.513 148.061 259.278 148.046C260.044 148.031 260.742 148.111 261.376 148.283C261.997 148.45 262.58 148.739 263.088 149.133C263.598 149.528 264.05 150.068 264.446 150.755C265.186 152.036 265.386 153.308 265.05 154.568C264.711 155.829 263.882 156.936 262.564 157.888L263.863 160.139L262.065 161.177L260.772 158.937C259.13 159.665 257.617 159.807 256.231 159.366C254.845 158.924 253.706 157.931 252.813 156.385L256.082 154.498C256.6 155.395 257.21 155.96 257.913 156.193C258.616 156.425 259.366 156.311 260.166 155.85C260.828 155.467 261.25 154.99 261.434 154.416C261.616 153.844 261.535 153.26 261.191 152.664Z" fill="white"/>
    <path fill-rule="evenodd" clip-rule="evenodd" d="M55.3598 230.214H246.189V231.349H55.3598V230.214Z" fill="#032C2F"/>
    <path fill-rule="evenodd" clip-rule="evenodd" d="M31.0579 230.357H49.5854V231.563H31.0579V230.357Z" fill="#032C2F"/>
    <path fill-rule="evenodd" clip-rule="evenodd" d="M152.792 114.183C149.429 120.401 141.077 152.471 141.077 152.471C141.077 152.471 106.873 141.894 96.5148 143.483C90.1926 144.452 88.3993 155.594 103.036 163.8C117.68 172.009 142.041 177.166 151.768 170.22C162.074 162.856 161.264 115.162 161.264 115.162C161.264 115.162 154.147 111.682 152.792 114.183Z" fill="#FAC0E1"/>
    <mask id="mask6_120_108" style="mask-type:luminance" maskUnits="userSpaceOnUse" x="91" y="113" width="71" height="61">
      <path d="M152.792 114.183C149.429 120.401 141.077 152.471 141.077 152.471C141.077 152.471 106.873 141.894 96.5148 143.483C90.1926 144.452 88.3993 155.594 103.036 163.8C117.68 172.009 142.041 177.166 151.768 170.22C162.074 162.856 161.264 115.162 161.264 115.162C161.264 115.162 154.147 111.682 152.792 114.183Z" fill="white"/>
    </mask>
    <g mask="url(#mask6_120_108)">
      <path fill-rule="evenodd" clip-rule="evenodd" d="M162.596 156.725C160.716 158.969 157.396 160.353 154.82 161.525C146.455 165.331 136.397 166.443 127.495 163.887C123.231 162.662 119.654 160.487 115.844 158.305C114.529 157.552 112.758 156.671 111.466 157.948C109.771 159.621 109.865 162.878 110.205 165.008C111.225 171.441 116.116 176.775 122.253 178.756C134.626 182.753 153.562 165.201 162.596 156.725Z" fill="#D799BC"/>
      <path fill-rule="evenodd" clip-rule="evenodd" d="M110.048 171.452C110.115 167.699 113.253 163.931 116.27 162.101C118.371 160.826 121.108 159.841 122.615 157.795C124.585 155.123 121.96 152.458 122.572 149.652C122.799 148.615 123.623 147.92 124.101 147.011C124.966 145.359 124.353 143.822 123.335 142.423C117.891 134.951 104.765 135.491 96.1054 139.714C91.9475 141.742 87.8507 144.785 88.3344 149.924C88.6244 152.989 90.4748 155.727 92.398 158.025C95.9445 162.263 105.557 168.289 110.048 171.452Z" fill="#F2058C"/>
      <path fill-rule="evenodd" clip-rule="evenodd" d="M119.454 160.341C117.845 159.517 113.6 156.84 112.048 155.413C111.27 154.698 110.552 153.924 109.861 153.126C109.74 152.987 109.393 152.431 109.147 152.584C108.879 152.749 109.053 153.48 109.083 153.71C109.234 154.917 109.438 156.12 109.642 157.318C110.148 160.3 110.911 165.489 114.061 163.647C115.504 162.802 117.83 161.755 119.454 160.341Z" fill="#CAA5F1"/>
    </g>
    <path fill-rule="evenodd" clip-rule="evenodd" d="M121.416 218.136C115.69 223.488 124.843 231.106 124.843 231.106C133.986 231.409 142.606 231.73 152.399 232.736C154.382 232.685 148.517 219.519 142.723 221.011C130.271 224.222 124.073 215.652 121.416 218.136Z" fill="#F2058C"/>
    <mask id="mask7_120_108" style="mask-type:luminance" maskUnits="userSpaceOnUse" x="119" y="217" width="34" height="16">
      <path d="M121.416 218.136C115.69 223.488 124.843 231.106 124.843 231.106C133.986 231.409 142.606 231.73 152.399 232.736C154.382 232.685 148.517 219.519 142.723 221.011C130.271 224.222 124.073 215.652 121.416 218.136Z" fill="white"/>
    </mask>
    <g mask="url(#mask7_120_108)">
      <path fill-rule="evenodd" clip-rule="evenodd" d="M118.628 217.39C119.055 219.724 120.452 222.299 122.352 223.742C125.079 225.812 129.01 226.669 132.319 227.247C135.072 227.727 138.683 227.927 140.952 225.963C143.067 224.127 142.841 221.117 141.613 218.844C139.442 214.81 134.834 212.302 130.374 211.86C127.247 211.547 121.502 216.128 118.628 217.39Z" fill="#00A3B1"/>
    </g>
    <path fill-rule="evenodd" clip-rule="evenodd" d="M88.5854 196.724C100.732 205.181 119.623 197.095 119.623 197.095L120.824 219.544C126.623 223.757 135.942 224.909 145.049 220.596C145.049 220.596 144.553 189.342 137.989 179.2C126.623 161.644 92.5714 167.826 92.5714 167.826C92.5714 167.826 83.178 192.957 88.5854 196.724Z" fill="#023C41"/>
    <mask id="mask8_120_108" style="mask-type:luminance" maskUnits="userSpaceOnUse" x="86" y="166" width="60" height="58">
      <path d="M88.5854 196.724C100.732 205.181 119.623 197.095 119.623 197.095L120.824 219.544C126.623 223.757 135.942 224.909 145.049 220.596C145.049 220.596 144.553 189.342 137.989 179.2C126.623 161.644 92.5714 167.826 92.5714 167.826C92.5714 167.826 83.178 192.957 88.5854 196.724Z" fill="white"/>
    </mask>
    <g mask="url(#mask8_120_108)">
      <path fill-rule="evenodd" clip-rule="evenodd" d="M129.98 168.234C128.024 169.113 126.2 170.378 124.55 171.735C123.247 172.802 122.106 173.923 121.245 175.379C120.569 176.526 120.123 177.768 119.84 179.066C119.171 182.119 119.674 184.949 121.864 187.248C124.485 190.004 127.96 190.899 128.145 195.317C128.315 199.419 126.974 203.468 125.917 207.375C125.086 210.453 124.304 213.946 125.482 217.043C126.09 218.633 127.261 219.963 128.885 220.552C130.913 221.292 133.667 221.126 134.418 223.671C135.279 226.572 131.11 227.686 129.048 227.682C123.095 227.667 118.155 222.493 114.526 218.365C105.469 208.07 96.3107 194.137 99.891 179.856C102.161 170.809 109.771 160.309 120.206 161.046C122.03 161.175 128.296 167.553 129.98 168.234Z" fill="#032C2F"/>
    </g>
    <path fill-rule="evenodd" clip-rule="evenodd" d="M225.869 125.471C225.869 123.651 225.146 121.905 223.861 120.617C222.573 119.33 220.828 118.607 219.005 118.607H141.422C139.603 118.607 137.858 119.33 136.57 120.617C135.281 121.905 134.558 123.651 134.558 125.471V226.378C134.558 228.197 135.281 229.94 136.57 231.23C137.858 232.519 139.603 233.242 141.422 233.242H219.005C220.828 233.242 222.573 232.519 223.861 231.23C225.146 229.94 225.869 228.197 225.869 226.378V125.471Z" fill="#023C41"/>
    <path fill-rule="evenodd" clip-rule="evenodd" d="M220.567 127.763C220.567 125.942 219.844 124.196 218.56 122.909C217.271 121.621 215.526 120.898 213.703 120.898H136.12C134.301 120.898 132.557 121.621 131.268 122.909C129.979 124.196 129.256 125.942 129.256 127.763V228.67C129.256 230.489 129.979 232.232 131.268 233.521C132.557 234.81 134.301 235.533 136.12 235.533H213.703C215.526 235.533 217.271 234.81 218.56 233.521C219.844 232.232 220.567 230.489 220.567 228.67V127.763Z" fill="#39BDC8"/>
    <path fill-rule="evenodd" clip-rule="evenodd" d="M217.394 134.63C217.394 130.839 214.323 127.765 210.532 127.765H139.293C135.501 127.765 132.427 130.839 132.427 134.63V142.425C132.427 146.216 135.501 149.29 139.293 149.29H210.532C214.323 149.29 217.394 146.216 217.394 142.425V134.63Z" fill="white"/>
    <path fill-rule="evenodd" clip-rule="evenodd" d="M151.728 163.357C151.728 161.414 150.153 159.838 148.209 159.838H141.779C139.835 159.838 138.26 161.414 138.26 163.357V169.786C138.26 171.729 139.835 173.305 141.779 173.305H148.209C150.153 173.305 151.728 171.729 151.728 169.786V163.357Z" fill="#023C41"/>
    <path fill-rule="evenodd" clip-rule="evenodd" d="M151.728 182.408C151.728 180.464 150.153 178.889 148.209 178.889H141.779C139.835 178.889 138.26 180.464 138.26 182.408V188.836C138.26 190.78 139.835 192.355 141.779 192.355H148.209C150.153 192.355 151.728 190.78 151.728 188.836V182.408Z" fill="#023C41"/>
    <path fill-rule="evenodd" clip-rule="evenodd" d="M151.728 201.458C151.728 199.515 150.153 197.939 148.209 197.939H141.779C139.835 197.939 138.26 199.515 138.26 201.458V207.887C138.26 209.83 139.835 211.406 141.779 211.406H148.209C150.153 211.406 151.728 209.83 151.728 207.887V201.458Z" fill="#023C41"/>
    <path fill-rule="evenodd" clip-rule="evenodd" d="M151.728 220.509C151.728 218.565 150.153 216.99 148.209 216.99H141.779C139.835 216.99 138.26 218.565 138.26 220.509V226.938C138.26 228.881 139.835 230.456 141.779 230.456H148.209C150.153 230.456 151.728 228.881 151.728 226.938V220.509Z" fill="#023C41"/>
    <path fill-rule="evenodd" clip-rule="evenodd" d="M172.573 163.357C172.573 161.414 170.998 159.838 169.053 159.838H162.624C160.68 159.838 159.105 161.414 159.105 163.357V169.786C159.105 171.729 160.68 173.305 162.624 173.305H169.053C170.998 173.305 172.573 171.729 172.573 169.786V163.357Z" fill="#023C41"/>
    <path fill-rule="evenodd" clip-rule="evenodd" d="M172.573 182.408C172.573 180.464 170.998 178.889 169.053 178.889H162.624C160.68 178.889 159.105 180.464 159.105 182.408V188.836C159.105 190.78 160.68 192.355 162.624 192.355H169.053C170.998 192.355 172.573 190.78 172.573 188.836V182.408Z" fill="#023C41"/>
    <path fill-rule="evenodd" clip-rule="evenodd" d="M172.573 201.458C172.573 199.515 170.998 197.939 169.053 197.939H162.624C160.68 197.939 159.105 199.515 159.105 201.458V207.887C159.105 209.83 160.68 211.406 162.624 211.406H169.053C170.998 211.406 172.573 209.83 172.573 207.887V201.458Z" fill="#023C41"/>
    <path fill-rule="evenodd" clip-rule="evenodd" d="M172.573 220.509C172.573 218.565 170.998 216.99 169.053 216.99H162.624C160.68 216.99 159.105 218.565 159.105 220.509V226.938C159.105 228.881 160.68 230.456 162.624 230.456H169.053C170.998 230.456 172.573 228.881 172.573 226.938V220.509Z" fill="#023C41"/>
    <path fill-rule="evenodd" clip-rule="evenodd" d="M193.417 163.357C193.417 161.414 191.842 159.838 189.898 159.838H183.469C181.524 159.838 179.949 161.414 179.949 163.357V169.786C179.949 171.729 181.524 173.305 183.469 173.305H189.898C191.842 173.305 193.417 171.729 193.417 169.786V163.357Z" fill="#023C41"/>
    <path fill-rule="evenodd" clip-rule="evenodd" d="M193.417 182.408C193.417 180.464 191.842 178.889 189.898 178.889H183.469C181.524 178.889 179.949 180.464 179.949 182.408V188.836C179.949 190.78 181.524 192.355 183.469 192.355H189.898C191.842 192.355 193.417 190.78 193.417 188.836V182.408Z" fill="#023C41"/>
    <path fill-rule="evenodd" clip-rule="evenodd" d="M193.417 201.458C193.417 199.515 191.842 197.939 189.898 197.939H183.469C181.524 197.939 179.949 199.515 179.949 201.458V207.887C179.949 209.83 181.524 211.406 183.469 211.406H189.898C191.842 211.406 193.417 209.83 193.417 207.887V201.458Z" fill="#023C41"/>
    <path fill-rule="evenodd" clip-rule="evenodd" d="M193.417 220.509C193.417 218.565 191.842 216.99 189.898 216.99H183.469C181.524 216.99 179.949 218.565 179.949 220.509V226.938C179.949 228.881 181.524 230.456 183.469 230.456H189.898C191.842 230.456 193.417 228.881 193.417 226.938V220.509Z" fill="#023C41"/>
    <path fill-rule="evenodd" clip-rule="evenodd" d="M214.262 163.357C214.262 161.414 212.687 159.838 210.743 159.838H204.313C202.369 159.838 200.794 161.414 200.794 163.357V169.786C200.794 171.729 202.369 173.305 204.313 173.305H210.743C212.687 173.305 214.262 171.729 214.262 169.786V163.357Z" fill="#023C41"/>
    <path fill-rule="evenodd" clip-rule="evenodd" d="M214.262 182.408C214.262 180.464 212.687 178.889 210.743 178.889H204.313C202.369 178.889 200.794 180.464 200.794 182.408V188.836C200.794 190.78 202.369 192.355 204.313 192.355H210.743C212.687 192.355 214.262 190.78 214.262 188.836V182.408Z" fill="#023C41"/>
    <path fill-rule="evenodd" clip-rule="evenodd" d="M214.262 201.324C214.262 199.381 212.687 197.806 210.743 197.806H204.313C202.369 197.806 200.794 199.381 200.794 201.324V226.935C200.794 228.879 202.369 230.454 204.313 230.454H210.743C212.687 230.454 214.262 228.879 214.262 226.935V201.324Z" fill="#023C41"/>
    <path fill-rule="evenodd" clip-rule="evenodd" d="M150.335 161.317C150.335 159.374 148.759 157.798 146.815 157.798H140.386C138.442 157.798 136.866 159.374 136.866 161.317V167.746C136.866 169.69 138.442 171.265 140.386 171.265H146.815C148.759 171.265 150.335 169.69 150.335 167.746V161.317Z" fill="white"/>
    <path fill-rule="evenodd" clip-rule="evenodd" d="M150.335 180.368C150.335 178.424 148.759 176.849 146.815 176.849H140.386C138.442 176.849 136.866 178.424 136.866 180.368V186.796C136.866 188.74 138.442 190.315 140.386 190.315H146.815C148.759 190.315 150.335 188.74 150.335 186.796V180.368Z" fill="white"/>
    <path fill-rule="evenodd" clip-rule="evenodd" d="M150.335 199.418C150.335 197.475 148.759 195.899 146.815 195.899H140.386C138.442 195.899 136.866 197.475 136.866 199.418V205.847C136.866 207.79 138.442 209.366 140.386 209.366H146.815C148.759 209.366 150.335 207.79 150.335 205.847V199.418Z" fill="white"/>
    <path fill-rule="evenodd" clip-rule="evenodd" d="M150.335 218.469C150.335 216.525 148.759 214.95 146.815 214.95H140.386C138.442 214.95 136.866 216.525 136.866 218.469V224.897C136.866 226.841 138.442 228.416 140.386 228.416H146.815C148.759 228.416 150.335 226.841 150.335 224.897V218.469Z" fill="white"/>
    <path fill-rule="evenodd" clip-rule="evenodd" d="M171.179 161.317C171.179 159.374 169.604 157.798 167.66 157.798H161.231C159.286 157.798 157.711 159.374 157.711 161.317V167.746C157.711 169.69 159.286 171.265 161.231 171.265H167.66C169.604 171.265 171.179 169.69 171.179 167.746V161.317Z" fill="white"/>
    <path fill-rule="evenodd" clip-rule="evenodd" d="M171.179 180.368C171.179 178.424 169.604 176.849 167.66 176.849H161.231C159.286 176.849 157.711 178.424 157.711 180.368V186.796C157.711 188.74 159.286 190.315 161.231 190.315H167.66C169.604 190.315 171.179 188.74 171.179 186.796V180.368Z" fill="white"/>
    <path fill-rule="evenodd" clip-rule="evenodd" d="M171.179 199.418C171.179 197.475 169.604 195.899 167.66 195.899H161.231C159.286 195.899 157.711 197.475 157.711 199.418V205.847C157.711 207.79 159.286 209.366 161.231 209.366H167.66C169.604 209.366 171.179 207.79 171.179 205.847V199.418Z" fill="white"/>
    <path fill-rule="evenodd" clip-rule="evenodd" d="M171.179 218.469C171.179 216.525 169.604 214.95 167.66 214.95H161.231C159.286 214.95 157.711 216.525 157.711 218.469V224.897C157.711 226.841 159.286 228.416 161.231 228.416H167.66C169.604 228.416 171.179 226.841 171.179 224.897V218.469Z" fill="white"/>
    <path fill-rule="evenodd" clip-rule="evenodd" d="M192.024 161.317C192.024 159.374 190.449 157.798 188.505 157.798H182.075C180.131 157.798 178.556 159.374 178.556 161.317V167.746C178.556 169.69 180.131 171.265 182.075 171.265H188.505C190.449 171.265 192.024 169.69 192.024 167.746V161.317Z" fill="white"/>
    <path fill-rule="evenodd" clip-rule="evenodd" d="M192.024 180.368C192.024 178.424 190.449 176.849 188.505 176.849H182.075C180.131 176.849 178.556 178.424 178.556 180.368V186.796C178.556 188.74 180.131 190.315 182.075 190.315H188.505C190.449 190.315 192.024 188.74 192.024 186.796V180.368Z" fill="white"/>
    <path fill-rule="evenodd" clip-rule="evenodd" d="M192.024 199.418C192.024 197.475 190.449 195.899 188.505 195.899H182.075C180.131 195.899 178.556 197.475 178.556 199.418V205.847C178.556 207.79 180.131 209.366 182.075 209.366H188.505C190.449 209.366 192.024 207.79 192.024 205.847V199.418Z" fill="white"/>
    <path fill-rule="evenodd" clip-rule="evenodd" d="M192.024 218.469C192.024 216.525 190.449 214.95 188.505 214.95H182.075C180.131 214.95 178.556 216.525 178.556 218.469V224.897C178.556 226.841 180.131 228.416 182.075 228.416H188.505C190.449 228.416 192.024 226.841 192.024 224.897V218.469Z" fill="white"/>
    <path fill-rule="evenodd" clip-rule="evenodd" d="M212.869 161.317C212.869 159.374 211.293 157.798 209.349 157.798H202.92C200.976 157.798 199.401 159.374 199.401 161.317V167.746C199.401 169.69 200.976 171.265 202.92 171.265H209.349C211.293 171.265 212.869 169.69 212.869 167.746V161.317Z" fill="white"/>
    <path fill-rule="evenodd" clip-rule="evenodd" d="M212.869 180.368C212.869 178.424 211.293 176.849 209.349 176.849H202.92C200.976 176.849 199.401 178.424 199.401 180.368V186.796C199.401 188.74 200.976 190.315 202.92 190.315H209.349C211.293 190.315 212.869 188.74 212.869 186.796V180.368Z" fill="white"/>
    <path fill-rule="evenodd" clip-rule="evenodd" d="M212.869 199.417C212.869 198.484 212.496 197.589 211.838 196.929C211.177 196.269 210.281 195.898 209.349 195.898H202.92C201.988 195.898 201.092 196.269 200.431 196.929C199.773 197.589 199.401 198.484 199.401 199.417V224.896C199.401 225.829 199.773 226.724 200.431 227.385C201.092 228.044 201.988 228.415 202.92 228.415H209.349C210.281 228.415 211.177 228.044 211.838 227.385C212.496 226.724 212.869 225.829 212.869 224.896V199.417Z" fill="white"/>
    <path d="M185.528 139.425C185.528 140.909 185.222 142.043 184.607 142.829C183.993 143.615 183.095 144.008 181.911 144.008C180.741 144.008 179.848 143.623 179.229 142.852C178.61 142.08 178.293 140.975 178.278 139.536V137.561C178.278 136.063 178.588 134.926 179.21 134.15C179.831 133.374 180.727 132.986 181.896 132.986C183.065 132.986 183.958 133.37 184.578 134.139C185.197 134.908 185.513 136.012 185.528 137.451V139.425ZM183.399 137.259C183.399 136.37 183.278 135.723 183.034 135.318C182.791 134.912 182.412 134.71 181.896 134.71C181.394 134.71 181.026 134.903 180.787 135.288C180.549 135.674 180.422 136.277 180.407 137.097V139.705C180.407 140.58 180.527 141.229 180.765 141.654C181.004 142.079 181.385 142.292 181.911 142.292C182.431 142.292 182.808 142.088 183.039 141.68C183.27 141.272 183.389 140.648 183.399 139.809V137.259ZM187.164 142.815C187.164 142.476 187.278 142.201 187.507 141.989C187.735 141.778 188.021 141.673 188.365 141.673C188.714 141.673 189.003 141.778 189.231 141.989C189.459 142.201 189.573 142.476 189.573 142.815C189.573 143.149 189.46 143.42 189.235 143.629C189.008 143.838 188.719 143.942 188.365 143.942C188.017 143.942 187.729 143.838 187.503 143.629C187.277 143.42 187.164 143.149 187.164 142.815ZM198.57 139.425C198.57 140.909 198.263 142.043 197.649 142.829C197.034 143.615 196.136 144.008 194.951 144.008C193.783 144.008 192.889 143.623 192.27 142.852C191.65 142.08 191.334 140.975 191.319 139.536V137.561C191.319 136.063 191.63 134.926 192.251 134.15C192.873 133.374 193.768 132.986 194.938 132.986C196.106 132.986 197 133.37 197.62 134.139C198.239 134.908 198.555 136.012 198.57 137.451V139.425ZM196.44 137.259C196.44 136.37 196.319 135.723 196.076 135.318C195.833 134.912 195.453 134.71 194.938 134.71C194.436 134.71 194.066 134.903 193.828 135.288C193.59 135.674 193.464 136.277 193.449 137.097V139.705C193.449 140.58 193.568 141.229 193.806 141.654C194.044 142.079 194.426 142.292 194.951 142.292C195.472 142.292 195.849 142.088 196.079 141.68C196.31 141.272 196.431 140.648 196.44 139.809V137.259ZM206.306 139.823H207.521V141.54H206.306V143.861H204.176V141.54H199.778L199.682 140.199L204.154 133.133H206.306V139.823ZM201.805 139.823H204.176V136.036L204.036 136.279L201.805 139.823Z" fill="#023C41"/>
    <path fill-rule="evenodd" clip-rule="evenodd" d="M62.4615 204.491C58.7489 197.587 49.0464 204.491 49.0464 204.491C46.4178 213.253 43.9062 221.506 40.4315 230.717C39.9745 232.647 54.2017 230.339 54.2395 224.357C54.315 211.497 64.1837 207.694 62.4615 204.491Z" fill="#F2058C"/>
    <mask id="mask9_120_108" style="mask-type:luminance" maskUnits="userSpaceOnUse" x="40" y="201" width="23" height="31">
      <path d="M62.4615 204.491C58.7489 197.587 49.0464 204.491 49.0464 204.491C46.4178 213.253 43.9062 221.506 40.4315 230.717C39.9745 232.647 54.2017 230.339 54.2395 224.357C54.315 211.497 64.1837 207.694 62.4615 204.491Z" fill="white"/>
    </mask>
    <g mask="url(#mask9_120_108)">
      <path fill-rule="evenodd" clip-rule="evenodd" d="M65.5121 201.903C59.5155 202.174 52.833 206.86 50.9196 212.907C49.8798 216.185 50.7391 219.905 48.4574 222.696C47.6668 223.667 46.5909 224.43 45.3923 224.72C44.6414 224.902 43.876 224.819 43.1467 225.113C41.6557 225.714 40.4355 227.172 39.8651 228.705C39.6232 229.358 39.4535 230.053 39.4643 230.759C39.5365 235.129 44.4536 235.801 47.6559 235.261C54.4467 234.113 60.1437 228.848 64.0138 223.157C67.0645 218.674 64.8442 207.34 65.5121 201.903Z" fill="#00A3B1"/>
    </g>
    <path fill-rule="evenodd" clip-rule="evenodd" d="M91.5488 178.218C80.2692 187.801 87.8689 209.066 87.8689 209.066L61.2509 203.558C55.6974 208.089 52.2027 216.804 54.0469 226.711C54.0469 226.711 84.3911 234.214 95.8729 230.459C115.75 223.954 118.47 189.452 118.47 189.452C118.47 189.452 96.5718 173.952 91.5488 178.218Z" fill="#023C41"/>
    <mask id="mask10_120_108" style="mask-type:luminance" maskUnits="userSpaceOnUse" x="53" y="177" width="66" height="55">
      <path d="M91.5488 178.218C80.2692 187.801 87.8689 209.066 87.8689 209.066L61.2509 203.558C55.6974 208.089 52.2027 216.804 54.0469 226.711C54.0469 226.711 84.3911 234.214 95.8729 230.459C115.75 223.954 118.47 189.452 118.47 189.452C118.47 189.452 96.5718 173.952 91.5488 178.218Z" fill="white"/>
    </mask>
    <g mask="url(#mask10_120_108)">
      <path fill-rule="evenodd" clip-rule="evenodd" d="M82.6684 187.05C82.5778 191.844 82.827 197.157 85.8674 201.103C89.9992 206.47 99.547 209.627 98.2213 217.91C98.0665 218.873 97.7681 219.802 97.3035 220.659C95.1545 224.64 90.1918 226.185 85.9731 226.498C77.751 227.114 67.5348 225.097 62.0735 218.318C60.0643 215.825 58.6669 212.826 57.6774 209.797C57.3903 208.917 57.1372 208.011 56.9711 207.097C56.9446 206.953 56.9371 206.19 56.7973 206.119C56.5141 205.972 55.9325 207.07 55.8494 207.214C55.0827 208.547 54.4973 209.99 53.9874 211.44C52.0953 216.849 51.4003 222.706 53.7571 228.119C58.6896 239.456 73.2 240.48 83.6995 238.342C96.9712 235.642 111.546 229.327 118.911 217.358C120.995 213.971 122.302 210.182 123.194 206.319C123.877 203.354 124.247 200.365 124.021 197.322C123.318 187.967 118.125 178.98 108.834 175.909C106.111 175.009 103.263 174.657 100.401 174.703C93.5192 174.814 86.653 177.421 81.7054 182.26C78.9936 184.916 82.6231 183.162 82.6684 187.05Z" fill="#032C2F"/>
    </g>
    <path fill-rule="evenodd" clip-rule="evenodd" d="M106.408 146.086C100.373 143.954 84.0949 141.535 79.3475 151.098C75.9673 157.913 85.1901 186.51 85.1901 186.51C90.1075 189.103 105.69 198.446 110.615 186.481C116.598 171.949 120.843 171.532 121.092 168.728C121.092 168.728 116.953 166.905 115.555 163.889C112.753 157.834 112.44 148.217 106.408 146.086Z" fill="#F2058C"/>
    <mask id="mask11_120_108" style="mask-type:luminance" maskUnits="userSpaceOnUse" x="78" y="144" width="44" height="49">
      <path d="M106.408 146.086C100.373 143.954 84.0949 141.535 79.3475 151.098C75.9673 157.913 85.1901 186.51 85.1901 186.51C90.1075 189.103 105.69 198.446 110.615 186.481C116.598 171.949 120.843 171.532 121.092 168.728C121.092 168.728 116.953 166.905 115.555 163.889C112.753 157.834 112.44 148.217 106.408 146.086Z" fill="white"/>
    </mask>
    <g mask="url(#mask11_120_108)">
      <path fill-rule="evenodd" clip-rule="evenodd" d="M118.839 183.693C116.81 183.926 114.544 183.194 112.686 182.472C107.867 180.601 104.253 177.479 101.541 173.083C100.03 170.638 98.5988 167.834 96.2006 166.129C95.6869 165.764 93.9912 164.652 93.4737 165.486C92.9299 166.355 93.3227 168.039 93.4058 168.965C93.6739 172.006 93.9723 175.045 94.2858 178.082C94.4658 179.852 94.6874 181.618 94.9505 183.377C95.1469 184.672 95.3659 185.963 95.6265 187.246C96.9182 193.579 99.5581 202.49 107.448 202.523C108.434 202.527 109.4 202.365 110.329 202.044C111.7 201.571 112.981 200.795 114.11 199.891C115.84 198.504 117.471 185.427 118.839 183.693Z" fill="#CAA5F1"/>
    </g>
    <path fill-rule="evenodd" clip-rule="evenodd" d="M145.882 173.263L109.201 190.729C109.201 190.729 93.8698 158.375 85.6962 151.817C80.708 147.814 71.2857 154.025 75.1349 170.358C78.9871 186.698 91.6563 208.135 103.351 210.606C115.744 213.221 150.339 180.379 150.339 180.379C150.339 180.379 154.929 179.195 155.337 177.955C156.331 174.927 153.269 173.094 153.269 173.094C153.269 173.094 158.974 167.517 158.242 166.541C156.295 163.944 145.882 173.263 145.882 173.263Z" fill="#FAC0E1"/>
    <mask id="mask12_120_108" style="mask-type:luminance" maskUnits="userSpaceOnUse" x="74" y="150" width="85" height="61">
      <path d="M145.882 173.263L109.201 190.729C109.201 190.729 93.8698 158.375 85.6962 151.817C80.708 147.814 71.2857 154.025 75.1349 170.358C78.9871 186.698 91.6563 208.135 103.351 210.606C115.744 213.221 150.339 180.379 150.339 180.379C150.339 180.379 154.929 179.195 155.337 177.955C156.331 174.927 153.269 173.094 153.269 173.094C153.269 173.094 158.974 167.517 158.242 166.541C156.295 163.944 145.882 173.263 145.882 173.263Z" fill="white"/>
    </mask>
    <g mask="url(#mask12_120_108)">
      <path fill-rule="evenodd" clip-rule="evenodd" d="M156.229 173.593C156.153 176.316 153.445 178.46 150.862 178.32C150.114 178.279 149.382 178.089 148.724 177.73C148.607 177.665 147.742 177.074 147.671 177.221C147.516 177.53 147.826 178.146 147.894 178.452C148.075 179.264 148.135 180.037 147.64 180.75C146.798 181.958 145.446 182.75 144.268 183.584C142.07 185.143 139.815 186.618 137.617 188.181C131.102 192.812 124.591 197.828 117.143 200.88C113.004 202.578 108.351 203.59 104.019 201.982C93.4136 198.046 89.7652 187.21 87.3292 177.129C84.2322 175.229 77.7664 173.586 74.7865 176.273C72.8755 177.995 72.5204 180.909 72.5658 183.335C72.7055 190.64 76.5049 198.082 81.596 203.168C84.7081 206.278 88.5264 208.492 92.5978 210.108C109.563 216.853 129.436 210.981 143.505 200.316C151.21 194.476 155.961 183.77 156.229 173.593ZM156.61 165.598C157.479 166.769 156.357 168.264 155.643 169.175C155.466 169.402 155.281 169.621 155.092 169.837C154.869 170.094 154.643 170.348 154.408 170.595C154.106 170.921 153.793 171.239 153.464 171.543C153.007 171.97 152.516 172.377 151.976 172.698C151.803 172.801 151.625 172.898 151.444 172.984C151.425 172.992 151.149 173.122 151.183 173.15C151.293 173.231 151.663 173.132 151.784 173.12C152.331 173.064 152.902 173.135 153.453 173.092C154.072 173.042 154.684 172.877 155.251 172.59C155.847 172.287 156.327 171.756 156.75 171.253C157.6 170.236 158.317 169.075 158.771 167.824C159.186 166.677 158.385 165.339 156.61 165.598Z" fill="#D799BC"/>
      <path fill-rule="evenodd" clip-rule="evenodd" d="M74.2373 180.698C77.0472 178.21 81.9457 177.974 85.3334 178.96C87.6939 179.647 90.2697 180.997 92.7964 180.725C96.0973 180.37 96.2861 176.634 98.7674 175.187C99.6852 174.654 100.754 174.792 101.747 174.529C103.549 174.05 104.266 172.558 104.61 170.863C106.434 161.8 97.1623 152.493 88.1962 148.967C83.8907 147.275 78.8789 146.314 75.4194 150.144C73.3573 152.43 72.5906 155.645 72.1978 158.615C71.4727 164.094 73.531 175.25 74.2373 180.698Z" fill="#F2058C"/>
    </g>
    <path fill-rule="evenodd" clip-rule="evenodd" d="M155.13 116.563C154.839 114.5 154.008 113.633 154.008 113.633C154.008 113.633 161.565 112.78 163.446 116.738C165.557 121.178 162.041 122.692 158.906 122.692C156.331 122.692 155.504 121.663 155.288 119.554C155.171 119.703 155.039 119.849 154.895 119.991C153.774 121.108 152.365 121.515 151.749 120.898C151.138 120.281 151.549 118.873 152.671 117.756C153.475 116.956 154.427 116.52 155.13 116.563Z" fill="#FAC0E1"/>
    <mask id="mask13_120_108" style="mask-type:luminance" maskUnits="userSpaceOnUse" x="151" y="113" width="14" height="10">
      <path d="M155.13 116.563C154.839 114.5 154.008 113.633 154.008 113.633C154.008 113.633 161.565 112.78 163.446 116.738C165.557 121.178 162.041 122.692 158.906 122.692C156.331 122.692 155.504 121.663 155.288 119.554C155.171 119.703 155.039 119.849 154.895 119.991C153.774 121.108 152.365 121.515 151.749 120.898C151.138 120.281 151.549 118.873 152.671 117.756C153.475 116.956 154.427 116.52 155.13 116.563Z" fill="white"/>
    </mask>
    <g mask="url(#mask13_120_108)">
      <path fill-rule="evenodd" clip-rule="evenodd" d="M164.251 117.754C164.22 118.117 164.081 118.473 163.929 118.8C163.091 120.632 161.184 121.297 159.295 121.416C158.408 121.472 157.407 121.416 156.663 120.871C156.093 120.455 155.76 119.84 155.583 119.169C155.522 118.95 155.481 118.725 155.454 118.499C155.451 118.476 155.432 118.161 155.417 118.163C155.349 118.168 155.277 118.417 155.254 118.465C155.122 118.768 154.971 119.065 154.778 119.336C154.253 120.076 153.328 120.608 152.425 120.69C152.063 120.722 151.67 120.719 151.394 120.45C151.485 122.798 153.887 123.997 155.885 124.429C159.356 125.177 164.043 124.581 165.293 120.68C165.474 120.118 164.273 118.342 164.251 117.754Z" fill="#D799BC"/>
    </g>
    <path fill-rule="evenodd" clip-rule="evenodd" d="M90.3525 138.345L82.9192 140.897C83.1575 142.941 82.9957 144.916 82.2515 147.66C92.3489 155.168 95.7738 155.769 91.9752 143.811C89.8687 142.032 90.4027 140.891 90.3525 138.345Z" fill="#FAC0E1"/>
    <mask id="mask14_120_108" style="mask-type:luminance" maskUnits="userSpaceOnUse" x="82" y="138" width="12" height="16">
      <path d="M90.3525 138.345L82.9192 140.897C83.1575 142.941 82.9957 144.916 82.2515 147.66C92.3489 155.168 95.7738 155.769 91.9752 143.811C89.8687 142.032 90.4027 140.891 90.3525 138.345Z" fill="white"/>
    </mask>
    <g mask="url(#mask14_120_108)">
      <path fill-rule="evenodd" clip-rule="evenodd" d="M82.2198 142.107C82.8575 143.517 84.3599 144.662 85.5807 145.6C86.5063 146.309 87.425 146.868 88.5599 147.198C89.5318 147.481 90.5848 147.635 91.5571 147.352C93.5927 146.757 94.3856 144.548 93.6014 142.697C92.4502 139.977 88.8938 138.629 86.0607 138.533C84.0888 138.467 83.142 140.409 82.2198 142.107Z" fill="#D799BC"/>
    </g>
    <path fill-rule="evenodd" clip-rule="evenodd" d="M86.9176 128.784C90.5396 128.784 93.4817 132.579 93.4817 137.252C93.4817 141.925 93.323 145.719 89.7011 145.719C86.0754 145.719 80.3536 141.925 80.3536 137.252C80.3536 132.579 83.2957 128.784 86.9176 128.784Z" fill="#FAC0E1"/>
    <mask id="mask15_120_108" style="mask-type:luminance" maskUnits="userSpaceOnUse" x="80" y="128" width="14" height="18">
      <path d="M86.9176 128.784C90.5396 128.784 93.4817 132.579 93.4817 137.252C93.4817 141.925 93.323 145.719 89.7011 145.719C86.0754 145.719 80.3536 141.925 80.3536 137.252C80.3536 132.579 83.2957 128.784 86.9176 128.784Z" fill="white"/>
    </mask>
    <g mask="url(#mask15_120_108)">
      <path fill-rule="evenodd" clip-rule="evenodd" d="M95.8795 133.818C95.3583 134.67 94.2744 135.713 93.2887 135.924C91.9706 136.205 90.5958 135.829 89.3835 136.582C88.579 137.079 88.1636 137.859 87.9294 138.744C87.835 139.097 87.7632 139.456 87.6613 139.807C87.6424 139.875 87.5669 140.137 87.4498 140.045C87.2647 139.9 87.2383 139.505 87.2156 139.298C87.1363 138.641 87.1363 137.966 87.1816 137.307C87.344 134.97 88.4922 132.736 90.9848 132.321C91.5023 132.236 95.3621 133.757 95.8795 133.818Z" fill="#D799BC"/>
    </g>
    <path fill-rule="evenodd" clip-rule="evenodd" d="M89.0285 135.18C89.7045 134.649 90.8716 135.146 91.7591 134.978C93.5606 134.638 95.4415 134.074 96.6085 132.547C97.5905 131.264 98.0097 129.523 98.1305 127.94C98.225 126.74 98.0663 125.463 97.5074 124.384C96.5783 122.592 94.1347 121.576 92.4427 123.021C91.4645 123.858 91.0226 125.21 90.6827 126.408C90.4939 126.199 89.9991 126.14 89.7423 126.085C88.6924 125.86 87.5933 125.87 86.5358 125.995C85.603 126.105 84.7003 126.288 83.8468 126.689C80.8027 128.118 79.409 131.284 79.7905 134.525C79.4921 134.466 79.2051 134.982 79.0842 135.181C78.5555 136.055 78.3478 137.011 78.3818 138.031C78.446 139.917 79.9453 141.477 81.7091 141.966C82.929 142.304 84.3113 142.114 84.9118 140.895C85.1196 140.472 85.1875 140.001 85.2366 139.537C84.2698 139.074 83.9978 137.567 84.2244 136.636C84.3566 136.109 84.689 135.445 85.3273 135.482C85.9467 135.518 86.3243 136.093 86.517 136.62C86.9853 137.902 86.381 139.233 86.7775 140.482C86.9362 140.972 87.4574 141.347 87.7406 140.728C87.9219 140.326 87.8615 139.839 87.8199 139.414C87.7784 138.999 87.7104 138.584 87.6878 138.167C87.6387 137.346 88.3487 135.712 89.0285 135.18Z" fill="#032C2F"/>
  </g>
  <defs>
    <clipPath id="clip0_120_108">
      <rect width="312" height="312" fill="white"/>
    </clipPath>
  </defs>
</svg>
