<svg width="312" height="237" viewBox="0 0 312 237" fill="none"
  xmlns="http://www.w3.org/2000/svg">
  <g clip-path="url(#clip0_120_4)">
    <path fill-rule="evenodd" clip-rule="evenodd" d="M104.954 109.204C120.634 126.151 119.607 152.594 102.664 168.271C95.3984 174.993 85.9809 178.92 76.0923 179.35L74.7279 148.031C77.2016 147.924 79.557 146.943 81.3743 145.261C85.6083 141.344 85.8651 134.731 81.9443 130.493L104.954 109.204ZM68.2457 178.954C58.7867 177.573 50.0863 172.993 43.5937 165.977C28.409 149.565 28.8306 124.109 44.5505 108.207L59.4129 122.901C51.5549 130.851 51.3441 143.579 58.9347 151.783C62.1823 155.293 66.5315 157.581 71.2588 158.273L68.2457 178.954ZM51.8338 102.329C66.5214 92.9802 85.4661 93.7159 99.3844 104.176L90.4654 116.046C81.4913 109.304 69.2753 108.829 59.8054 114.855L51.8338 102.329Z" fill="#EEEEEE"/>
    <path fill-rule="evenodd" clip-rule="evenodd" d="M62.6789 228.696C51.9192 223.731 37.7367 199.461 50.4655 190.726C57.9554 185.588 68.7352 187.132 77.3043 186.344C91.9942 184.993 106.265 179.403 115.511 167.451C135.262 141.911 125.86 81.2824 172.615 83.6482C192.528 84.6553 208.378 98.2181 216.23 115.851C220.386 125.177 222.709 137.832 230.034 145.346C238.1 153.616 251.751 147.601 261.596 147.22C269.215 146.925 273.636 151.853 273.02 159.405C270.862 185.867 234.262 202.816 237.258 229.147L62.6789 228.696Z" fill="#EEEEEE"/>
    <path fill-rule="evenodd" clip-rule="evenodd" d="M242.113 113.733C242.382 112.491 242.146 111.3 241.458 110.422C240.77 109.544 239.687 109.051 238.442 109.051H149.015C147.77 109.051 146.474 109.544 145.406 110.422C144.338 111.3 143.587 112.491 143.319 113.733L119.681 223.026C119.412 224.269 119.648 225.458 120.336 226.336C121.024 227.214 122.108 227.707 123.352 227.707H212.78C214.024 227.707 215.321 227.214 216.388 226.336C217.456 225.458 218.206 224.269 218.475 223.026L242.113 113.733Z" fill="#39BDC8"/>
    <path fill-rule="evenodd" clip-rule="evenodd" d="M167.361 144.262C167.703 142.679 166.698 141.396 165.113 141.396H156.682C155.102 141.396 153.541 142.679 153.199 144.262L153.152 144.478C152.81 146.06 153.816 147.343 155.396 147.343H163.826C165.411 147.343 166.972 146.06 167.314 144.478L167.361 144.262Z" fill="white"/>
    <path fill-rule="evenodd" clip-rule="evenodd" d="M177.837 154.217C178.038 153.284 177.446 152.529 176.514 152.528H153.105C152.173 152.529 151.254 153.284 151.053 154.217C150.851 155.15 151.443 155.906 152.375 155.906H175.784C176.716 155.906 177.635 155.15 177.837 154.217Z" fill="white"/>
    <path fill-rule="evenodd" clip-rule="evenodd" d="M176.753 159.228C176.955 158.295 176.362 157.539 175.43 157.539H152.022C151.09 157.539 150.171 158.295 149.969 159.228C149.767 160.161 150.359 160.917 151.291 160.917H174.7C175.632 160.917 176.551 160.161 176.753 159.228Z" fill="white"/>
    <path fill-rule="evenodd" clip-rule="evenodd" d="M171.664 182.759C171.828 181.998 171.684 181.269 171.262 180.732C170.841 180.195 170.176 179.893 169.421 179.893H148.363C146.784 179.893 145.222 181.176 144.88 182.759L144.833 182.974C144.669 183.734 144.813 184.463 145.234 185.001C145.656 185.538 146.321 185.84 147.076 185.84H168.134C169.713 185.84 171.275 184.557 171.617 182.974L171.664 182.759Z" fill="white"/>
    <path fill-rule="evenodd" clip-rule="evenodd" d="M211.567 197.213C211.667 196.751 211.588 196.307 211.33 195.98C211.073 195.652 210.653 195.468 210.194 195.468H143.878C143.419 195.468 142.919 195.652 142.52 195.98C142.143 196.307 141.85 196.751 141.75 197.213L141.75 197.215C141.649 197.678 141.751 198.122 141.986 198.449C142.244 198.777 142.664 198.96 143.123 198.96H209.438C209.898 198.96 210.397 198.777 210.796 198.449C211.195 198.122 211.466 197.678 211.566 197.215L211.567 197.213Z" fill="white"/>
    <path fill-rule="evenodd" clip-rule="evenodd" d="M210.042 204.266C210.142 203.803 210.063 203.36 209.805 203.032C209.548 202.705 209.128 202.521 208.668 202.521H142.353C141.893 202.521 141.394 202.705 140.995 203.032C140.618 203.36 140.325 203.803 140.225 204.266L140.224 204.268C140.124 204.731 140.225 205.175 140.461 205.502C140.718 205.829 141.138 206.013 141.598 206.013H207.913C208.373 206.013 208.872 205.829 209.271 205.502C209.67 205.175 209.941 204.731 210.041 204.268L210.042 204.266Z" fill="white"/>
    <path fill-rule="evenodd" clip-rule="evenodd" d="M208.516 211.319C208.616 210.856 208.537 210.412 208.28 210.085C208.022 209.757 207.603 209.574 207.143 209.574H140.828C140.368 209.574 139.869 209.757 139.47 210.085C139.093 210.412 138.799 210.856 138.699 211.319L138.699 211.321C138.599 211.783 138.7 212.227 138.936 212.554C139.193 212.882 139.613 213.066 140.072 213.066H206.388C206.847 213.066 207.347 212.882 207.746 212.554C208.145 212.227 208.416 211.783 208.516 211.321L208.516 211.319Z" fill="white"/>
    <path d="M215.226 182.967C214.546 186.071 213.155 188.589 211.063 190.518C208.967 192.448 206.56 193.409 203.855 193.401C201.107 193.393 199.106 192.431 197.852 190.515C196.598 188.599 196.332 186.007 197.048 182.741L197.596 180.238C198.281 177.111 199.666 174.599 201.755 172.704C203.844 170.809 206.241 169.866 208.952 169.873C211.679 169.881 213.675 170.843 214.939 172.759C216.204 174.676 216.478 177.256 215.767 180.499L215.226 182.967ZM210.278 180.275C210.583 178.884 210.495 177.766 210.018 176.918C209.542 176.071 208.763 175.645 207.688 175.642C206.612 175.639 205.663 176.065 204.84 176.921C204.018 177.776 203.449 178.922 203.134 180.359L202.571 182.93C202.266 184.32 202.337 185.445 202.784 186.304C203.231 187.163 204.014 187.594 205.127 187.597C206.181 187.6 207.129 187.18 207.97 186.336C208.807 185.493 209.392 184.318 209.722 182.812L210.278 180.275ZM201.402 154.446C200.717 157.574 199.32 160.091 197.207 161.998C195.1 163.904 192.701 164.854 190.006 164.846C187.28 164.838 185.281 163.888 184.012 161.994C182.747 160.101 182.478 157.499 183.204 154.186L183.753 151.683C184.433 148.578 185.806 146.073 187.876 144.166C189.951 142.26 192.36 141.31 195.109 141.318C197.873 141.326 199.884 142.294 201.135 144.222C202.381 146.149 202.662 148.701 201.966 151.874L201.402 154.446ZM196.462 151.72C196.741 150.446 196.636 149.356 196.14 148.45C195.644 147.545 194.883 147.09 193.845 147.087C191.5 147.08 189.984 148.641 189.299 151.769L188.72 154.41C188.415 155.8 188.498 156.919 188.964 157.766C189.429 158.614 190.203 159.039 191.278 159.042C192.359 159.045 193.313 158.625 194.154 157.781C194.99 156.938 195.571 155.786 195.891 154.326L196.462 151.72ZM212.575 145.854L216.056 148.507L186.897 187.997L183.41 185.344L212.575 145.854Z" fill="white"/>
    <path d="M172.037 125.185H170.639L169.966 128.299H168.214L170.054 119.793H173.215C174.218 119.793 174.942 120.017 175.393 120.465C175.84 120.913 175.977 121.546 175.8 122.364C175.674 122.944 175.445 123.428 175.111 123.815C174.774 124.203 174.329 124.511 173.768 124.741L174.856 128.217L174.838 128.299H172.958L172.037 125.185ZM170.946 123.766H172.36C172.799 123.766 173.165 123.654 173.455 123.429C173.745 123.206 173.933 122.897 174.018 122.504C174.105 122.103 174.056 121.787 173.88 121.557C173.7 121.327 173.375 121.213 172.908 121.213H171.498L170.946 123.766ZM178.622 128.416C177.696 128.416 177.001 128.132 176.544 127.563C176.083 126.994 175.957 126.237 176.161 125.29L176.197 125.127C176.334 124.492 176.578 123.924 176.932 123.424C177.285 122.923 177.715 122.538 178.225 122.267C178.734 121.996 179.275 121.861 179.851 121.861C180.717 121.861 181.338 122.134 181.716 122.679C182.097 123.224 182.175 123.997 181.959 124.998L181.81 125.688H177.787C177.75 126.1 177.843 126.431 178.063 126.681C178.283 126.93 178.607 127.055 179.025 127.055C179.678 127.055 180.236 126.819 180.705 126.348L181.333 127.277C181.002 127.635 180.599 127.914 180.125 128.115C179.647 128.316 179.146 128.416 178.622 128.416ZM179.551 123.228C179.217 123.228 178.919 123.341 178.664 123.567C178.406 123.793 178.203 124.116 178.052 124.537H180.4L180.429 124.402C180.502 124.028 180.463 123.739 180.314 123.535C180.161 123.33 179.909 123.228 179.551 123.228ZM186.004 126.552C186.049 126.346 185.983 126.183 185.803 126.064C185.628 125.945 185.321 125.839 184.89 125.746C183.452 125.43 182.841 124.792 183.049 123.83C183.17 123.269 183.505 122.8 184.05 122.425C184.598 122.049 185.247 121.861 186 121.861C186.801 121.861 187.4 122.05 187.802 122.428C188.2 122.805 188.335 123.296 188.204 123.9H186.517C186.569 123.659 186.532 123.459 186.409 123.301C186.29 123.144 186.062 123.065 185.731 123.065C185.449 123.065 185.214 123.129 185.029 123.257C184.848 123.386 184.733 123.549 184.69 123.748C184.649 123.935 184.705 124.086 184.858 124.201C185.01 124.316 185.286 124.415 185.691 124.499C186.092 124.582 186.426 124.677 186.693 124.782C187.512 125.109 187.836 125.676 187.662 126.482C187.537 127.058 187.191 127.525 186.619 127.881C186.046 128.237 185.367 128.416 184.586 128.416C184.059 128.416 183.608 128.321 183.238 128.132C182.868 127.943 182.602 127.685 182.436 127.356C182.277 127.026 182.237 126.671 182.32 126.289H183.919C183.87 126.589 183.929 126.819 184.104 126.979C184.274 127.139 184.535 127.218 184.881 127.218C185.203 127.218 185.462 127.157 185.654 127.034C185.846 126.911 185.961 126.751 186.004 126.552ZM192.281 127.656C191.756 128.163 191.122 128.416 190.389 128.416C189.708 128.416 189.235 128.221 188.961 127.832C188.691 127.442 188.633 126.872 188.787 126.12L189.683 121.978H191.37L190.487 126.061C190.345 126.72 190.576 127.049 191.176 127.049C191.747 127.049 192.181 126.85 192.484 126.453L193.452 121.978H195.144L193.776 128.299H192.19L192.281 127.656ZM198.003 121.978L197.902 122.685C198.468 122.136 199.131 121.861 199.896 121.861C200.71 121.861 201.2 122.182 201.363 122.825C201.949 122.182 202.651 121.861 203.472 121.861C204.157 121.861 204.625 122.061 204.873 122.46C205.121 122.859 205.16 123.46 204.986 124.262L204.113 128.299H202.418L203.29 124.268C203.367 123.909 203.356 123.648 203.25 123.482C203.145 123.317 202.918 123.234 202.559 123.234C202.056 123.234 201.653 123.475 201.351 123.958L200.421 128.299H198.733L199.604 124.274C199.683 123.908 199.668 123.643 199.558 123.479C199.449 123.315 199.221 123.234 198.875 123.234C198.395 123.234 198.006 123.433 197.707 123.83L196.74 128.299H195.053L196.42 121.978H198.003ZM208.292 128.416C207.366 128.416 206.674 128.132 206.213 127.563C205.752 126.994 205.626 126.237 205.831 125.29L205.867 125.127C206.004 124.492 206.251 123.924 206.605 123.424C206.959 122.923 207.389 122.538 207.898 122.267C208.404 121.996 208.949 121.861 209.524 121.861C210.39 121.861 211.012 122.134 211.389 122.679C211.767 123.224 211.849 123.997 211.633 124.998L211.483 125.688H207.457C207.424 126.1 207.517 126.431 207.737 126.681C207.957 126.93 208.276 127.055 208.699 127.055C209.347 127.055 209.91 126.819 210.378 126.348L211.007 127.277C210.676 127.635 210.273 127.914 209.795 128.115C209.32 128.316 208.82 128.416 208.292 128.416ZM209.221 123.228C208.887 123.228 208.592 123.341 208.334 123.567C208.076 123.793 207.873 124.116 207.726 124.537H210.073L210.102 124.402C210.175 124.028 210.137 123.739 209.988 123.535C209.835 123.33 209.579 123.228 209.221 123.228Z" fill="white"/>
    <path fill-rule="evenodd" clip-rule="evenodd" d="M154.127 128.773L130.166 149.243L89.0162 162.162C89.0162 162.162 92.6014 185.769 107.056 188.426C117.12 190.279 146.194 178.204 149.906 167.603C157.551 145.772 169.474 131.269 164.904 125.683C164.904 125.683 162.987 121.855 162.258 120.735C156.133 111.299 153.361 114.302 153.361 114.302C153.361 114.302 158.551 124.751 154.021 120.603C153.299 119.944 152.414 121.679 152.825 123.481C153.346 125.764 154.127 128.773 154.127 128.773Z" fill="#FAC0E1"/>
    <mask id="mask0_120_4" style="mask-type:luminance" maskUnits="userSpaceOnUse" x="89" y="113" width="77" height="76">
      <path d="M154.127 128.773L130.166 149.243L89.0162 162.162C89.0162 162.162 92.6014 185.769 107.056 188.426C117.12 190.279 146.194 178.204 149.906 167.603C157.551 145.772 169.474 131.269 164.904 125.683C164.904 125.683 162.987 121.855 162.258 120.735C156.133 111.299 153.361 114.302 153.361 114.302C153.361 114.302 158.551 124.751 154.021 120.603C153.299 119.944 152.414 121.679 152.825 123.481C153.346 125.764 154.127 128.773 154.127 128.773Z" fill="white"/>
    </mask>
    <g mask="url(#mask0_120_4)">
      <path fill-rule="evenodd" clip-rule="evenodd" d="M165.755 147.966C170.033 137.326 159.594 130.215 158.637 133.223C153.844 148.269 144.067 159.717 136.826 164.28C133.629 166.292 130.113 167.802 126.468 168.607C125.434 168.836 124.397 169.055 123.358 169.263C122.914 169.352 122.236 169.46 121.995 169.937C121.44 171.051 123.513 172.765 124.096 173.391C126.792 176.285 129.188 180.152 132.851 181.712C141.123 185.235 148.34 176.58 152.947 170.538C155.012 167.827 156.94 165.004 158.722 162.08C160.199 159.657 161.514 157.133 162.773 154.578C163.837 152.412 164.85 150.213 165.755 147.966Z" fill="#D799BC"/>
      <path fill-rule="evenodd" clip-rule="evenodd" d="M111.416 148.47C112.136 149.051 113.675 149.325 114.534 149.787C116.792 151.004 118.935 152.584 120.654 154.493C123.881 158.074 125.175 163.899 130.075 165.756C136.522 168.202 142.015 160.315 147.822 165.64C148.625 166.382 149.327 167.221 149.868 168.17C154.096 175.563 148.188 184.944 142.397 189.531C131.29 198.326 115.768 198.153 103.524 191.883C93.9564 186.984 85.0633 178.568 81.0713 168.449C78.6852 162.402 77.4365 152.763 84.2611 148.98C87.3907 147.244 107.938 148.361 111.416 148.47Z" fill="#F2058C"/>
    </g>
    <path fill-rule="evenodd" clip-rule="evenodd" d="M147.491 85.4781C146.847 84.3024 145.762 83.4306 144.477 83.0544C143.178 82.6812 141.798 82.8323 140.63 83.4759L138.9 84.4247C137.724 85.0695 136.85 86.1561 136.476 87.4421C136.099 88.7304 136.251 90.1134 136.896 91.289L177.334 165.024C177.729 165.743 178.237 166.394 178.837 166.953C180.966 168.932 186.344 173.932 189.524 176.891C189.878 177.219 190.4 177.284 190.824 177.052C191.244 176.821 191.474 176.344 191.384 175.871C190.602 171.596 189.277 164.374 188.752 161.515C188.603 160.709 188.324 159.933 187.93 159.213L147.491 85.4781Z" fill="#023C41"/>
    <mask id="mask1_120_4" style="mask-type:luminance" maskUnits="userSpaceOnUse" x="136" y="82" width="56" height="96">
      <path d="M147.491 85.4781C146.847 84.3024 145.762 83.4306 144.477 83.0544C143.178 82.6812 141.798 82.8323 140.63 83.4759L138.9 84.4247C137.724 85.0695 136.85 86.1561 136.476 87.4421C136.099 88.7304 136.251 90.1134 136.896 91.289L177.334 165.024C177.729 165.743 178.237 166.394 178.837 166.953C180.966 168.932 186.344 173.932 189.524 176.891C189.878 177.219 190.4 177.284 190.824 177.052C191.244 176.821 191.474 176.344 191.384 175.871C190.602 171.596 189.277 164.374 188.752 161.515C188.603 160.709 188.324 159.933 187.93 159.213L147.491 85.4781Z" fill="white"/>
    </mask>
    <g mask="url(#mask1_120_4)">
      <path fill-rule="evenodd" clip-rule="evenodd" d="M136.276 81.0069C139.167 95.3455 147.837 106.397 154.759 118.454C160.018 127.611 164.556 137.134 169.767 146.313C172.441 151.025 175.223 155.681 177.982 160.344C179.367 162.683 180.99 165.767 183.692 166.798C187.235 168.152 187.924 163.653 188.299 161.193C188.423 160.379 188.564 158.308 189.889 158.701C191.431 159.158 192.535 161.43 193.219 162.698C195.615 167.162 196.956 172.153 197.105 177.217C197.343 185.251 193.324 191.777 184.602 187.574C177.486 184.146 172.022 177.239 167.198 171.224C157.268 158.837 149.48 144.73 142.465 130.535C136.091 117.636 123.644 92.3849 136.276 81.0069Z" fill="#032C2F"/>
    </g>
    <path fill-rule="evenodd" clip-rule="evenodd" d="M146.762 91.5947C146.108 90.4021 144.613 89.9649 143.42 90.6192C142.227 91.2734 141.79 92.7705 142.444 93.9631L148.986 105.891C149.64 107.084 151.137 107.52 152.33 106.866C153.523 106.212 153.958 104.715 153.304 103.523L146.762 91.5947Z" fill="white"/>
    <path fill-rule="evenodd" clip-rule="evenodd" d="M124.899 163.32C119.28 156.885 87.7154 157.726 82.5407 164.232C67.4547 183.189 74.0582 227.903 74.0582 227.903L138.64 228.427C130.176 217.776 134.252 174.019 124.899 163.32Z" fill="#F2058C"/>
    <mask id="mask2_120_4" style="mask-type:luminance" maskUnits="userSpaceOnUse" x="72" y="158" width="67" height="71">
      <path d="M124.899 163.32C119.28 156.885 87.7154 157.726 82.5407 164.232C67.4547 183.189 74.0582 227.903 74.0582 227.903L138.64 228.427C130.176 217.776 134.252 174.019 124.899 163.32Z" fill="white"/>
    </mask>
    <g mask="url(#mask2_120_4)">
      <path fill-rule="evenodd" clip-rule="evenodd" d="M119.342 180.729C115.885 196.714 133.217 204.302 119.533 223.084C116.329 227.484 118.861 230.151 123.606 233.702C130.64 238.966 142.417 231.646 144.214 224.622C150.978 198.137 119.991 185.935 119.342 180.729Z" fill="#CAA5F1"/>
    </g>
    <path fill-rule="evenodd" clip-rule="evenodd" d="M164.21 139.364L156.057 165.741L113.407 159.323C113.407 159.323 106.285 182.114 118.114 190.836C126.349 196.912 157.774 198.798 165.755 190.895C182.193 174.621 176.911 148.332 175.251 141.309C175.251 141.309 175.205 137.028 175.041 135.701C173.67 124.536 169.863 126.021 169.863 126.021C169.863 126.021 168.798 137.506 166.544 131.792C166.188 130.882 164.728 130.869 164.308 132.668C163.772 134.951 164.21 139.364 164.21 139.364Z" fill="#FAC0E1"/>
    <mask id="mask3_120_4" style="mask-type:luminance" maskUnits="userSpaceOnUse" x="111" y="125" width="67" height="72">
      <path d="M164.21 139.364L156.057 165.741L113.407 159.323C113.407 159.323 106.285 182.114 118.114 190.836C126.349 196.912 157.774 198.798 165.755 190.895C182.193 174.621 176.911 148.332 175.251 141.309C175.251 141.309 175.205 137.028 175.041 135.701C173.67 124.536 169.863 126.021 169.863 126.021C169.863 126.021 168.798 137.506 166.544 131.792C166.188 130.882 164.728 130.869 164.308 132.668C163.772 134.951 164.21 139.364 164.21 139.364Z" fill="white"/>
    </mask>
    <g mask="url(#mask3_120_4)">
      <path fill-rule="evenodd" clip-rule="evenodd" d="M186.826 151.024C187.081 140.04 174.881 137.572 175.043 140.584C175.849 155.657 170.759 169.372 165.619 176.064C163.349 179.016 160.605 181.64 157.496 183.688C156.614 184.27 155.726 184.844 154.832 185.409C154.45 185.65 153.857 185.995 153.8 186.505C153.673 187.694 156.202 188.452 156.963 188.792C160.485 190.365 164.067 192.909 168.021 192.948C176.952 193.034 180.637 182.73 182.809 175.694C183.781 172.538 184.587 169.333 185.222 166.093C185.748 163.407 186.088 160.692 186.365 157.968C186.597 155.661 186.77 153.344 186.826 151.024Z" fill="#D799BC"/>
      <path fill-rule="evenodd" clip-rule="evenodd" d="M139.541 156.83C139.934 157.669 141.197 158.589 141.767 159.381C143.263 161.464 144.497 163.823 145.205 166.293C146.538 170.926 145.148 176.729 148.739 180.545C153.463 185.568 161.856 180.886 164.742 188.217C165.139 189.236 165.402 190.297 165.473 191.388C166.033 199.886 156.613 205.729 149.397 207.315C135.559 210.354 121.683 203.397 113.425 192.396C106.971 183.8 102.665 172.338 103.51 161.493C104.015 155.012 107.116 145.801 114.908 145.391C118.482 145.201 136.462 155.208 139.541 156.83Z" fill="#F2058C"/>
    </g>
    <path fill-rule="evenodd" clip-rule="evenodd" d="M109.035 150.16H99.8589C100.84 153.915 98.6839 156.958 97.442 159.468C100.034 164.502 107.087 162.395 108.965 158.891C107.187 155.291 107.422 153.007 109.035 150.16Z" fill="#FAC0E1"/>
    <mask id="mask4_120_4" style="mask-type:luminance" maskUnits="userSpaceOnUse" x="97" y="150" width="13" height="13">
      <path d="M109.035 150.16H99.8589C100.84 153.915 98.6839 156.958 97.442 159.468C100.034 164.502 107.087 162.395 108.965 158.891C107.187 155.291 107.422 153.007 109.035 150.16Z" fill="white"/>
    </mask>
    <g mask="url(#mask4_120_4)">
      <path fill-rule="evenodd" clip-rule="evenodd" d="M102.077 147.194C102.292 147.668 100.992 150.434 101.258 150.876C101.908 151.95 102.593 152.992 103.347 153.982C104.064 154.929 104.849 155.874 105.73 156.647C106.565 157.381 107.557 157.969 108.532 158.448C108.936 158.647 109.453 158.894 109.901 158.745C110.483 158.551 110.676 157.587 110.8 157.033C111.206 155.211 110.951 153.106 110.279 151.391C108.926 147.922 105.319 146.161 102.077 147.194Z" fill="#D799BC"/>
    </g>
    <path fill-rule="evenodd" clip-rule="evenodd" d="M106.092 136.136C110.322 136.136 113.758 140.333 113.758 145.502C113.758 150.671 113.285 155.361 109.055 155.361C104.825 155.361 98.4268 150.671 98.4268 145.502C98.4268 140.333 101.863 136.136 106.092 136.136Z" fill="#FAC0E1"/>
    <path fill-rule="evenodd" clip-rule="evenodd" d="M100.813 134.806C100.656 134.073 100.571 133.313 100.571 132.533C100.571 126.646 105.351 121.866 111.238 121.866C117.126 121.866 121.901 126.646 121.901 132.533C121.901 138.419 117.126 143.199 111.238 143.199C111.065 143.199 110.892 143.195 110.723 143.187C111.063 143.998 111.239 144.869 111.238 145.749C111.238 149.395 108.275 152.356 104.63 152.356C102.842 152.356 101.216 151.644 100.028 150.488C99.4502 150.786 98.8094 150.942 98.1592 150.941C95.9123 150.941 94.0881 149.116 94.0881 146.869C94.0881 144.951 95.417 143.341 97.2049 142.91C96.7406 142.085 96.4978 141.155 96.5002 140.208C96.5002 137.572 98.3445 135.363 100.813 134.806Z" fill="#032C2F"/>
    <path fill-rule="evenodd" clip-rule="evenodd" d="M240.141 228.616C240.319 226.316 241.086 224.027 241.814 221.855C243.754 216.074 246.549 210.882 251.503 207.154C253.91 205.343 257.174 203.648 260.294 204.075C261.772 204.277 263.421 205.131 263.348 206.839C263.22 209.893 259.557 212.28 257.318 213.765C251.848 217.394 241.693 221.326 240.141 228.616Z" fill="#39BDC8"/>
    <mask id="mask5_120_4" style="mask-type:luminance" maskUnits="userSpaceOnUse" x="240" y="204" width="24" height="25">
      <path d="M240.141 228.616C240.319 226.316 241.086 224.027 241.814 221.855C243.754 216.074 246.549 210.882 251.503 207.154C253.91 205.343 257.174 203.648 260.294 204.075C261.772 204.277 263.421 205.131 263.348 206.839C263.22 209.893 259.557 212.28 257.318 213.765C251.848 217.394 241.693 221.326 240.141 228.616Z" fill="white"/>
    </mask>
    <g mask="url(#mask5_120_4)">
      <path fill-rule="evenodd" clip-rule="evenodd" d="M262.005 202.504C262.424 203.548 262.247 204.784 262.029 205.851C261.836 206.814 261.566 207.792 261.071 208.646C259.275 211.73 255.498 213.027 252.155 213.535C250.645 213.764 248.225 213.917 247.041 212.677C246.228 211.823 246.816 211.002 246.864 210.043C246.876 209.79 246.675 209.729 246.461 209.794C245.306 210.132 244.315 211.779 243.695 212.693C241.835 215.451 240.647 218.789 240.155 222.071C239.982 223.227 239.725 224.842 240.469 225.865C241.404 227.149 243.53 226.167 244.613 225.659C244.927 225.51 245.241 225.353 245.551 225.192C245.91 225.007 246.268 224.814 246.618 224.62C247.17 224.318 247.71 223.996 248.245 223.674C251.519 221.717 267.163 213.587 269.225 209.741C271.375 205.726 265.722 203.866 262.005 202.504Z" fill="#477D82"/>
    </g>
    <path fill-rule="evenodd" clip-rule="evenodd" d="M238.459 228.616C238.281 226.316 237.514 224.027 236.786 221.855C234.846 216.074 232.05 210.882 227.097 207.154C224.69 205.343 221.426 203.648 218.305 204.075C216.827 204.277 215.178 205.131 215.252 206.839C215.379 209.893 219.043 212.28 221.282 213.765C226.751 217.394 236.907 221.326 238.459 228.616Z" fill="#39BDC8"/>
    <mask id="mask6_120_4" style="mask-type:luminance" maskUnits="userSpaceOnUse" x="215" y="204" width="24" height="25">
      <path d="M238.459 228.616C238.281 226.316 237.514 224.027 236.786 221.855C234.846 216.074 232.05 210.882 227.097 207.154C224.69 205.343 221.426 203.648 218.305 204.075C216.827 204.277 215.178 205.131 215.252 206.839C215.379 209.893 219.043 212.28 221.282 213.765C226.751 217.394 236.907 221.326 238.459 228.616Z" fill="white"/>
    </mask>
    <g mask="url(#mask6_120_4)">
      <path fill-rule="evenodd" clip-rule="evenodd" d="M216.595 202.504C216.176 203.548 216.353 204.784 216.57 205.851C216.764 206.814 217.034 207.792 217.529 208.646C219.325 211.73 223.102 213.027 226.444 213.535C227.954 213.764 230.375 213.917 231.558 212.677C232.372 211.823 231.784 211.002 231.736 210.043C231.723 209.79 231.925 209.729 232.138 209.794C233.294 210.132 234.285 211.779 234.905 212.693C236.765 215.451 237.953 218.789 238.444 222.071C238.617 223.227 238.875 224.842 238.13 225.865C237.196 227.149 235.07 226.167 233.987 225.659C233.672 225.51 233.358 225.353 233.048 225.192C232.69 225.007 232.332 224.814 231.981 224.62C231.43 224.318 230.89 223.996 230.354 223.674C227.081 221.717 211.436 213.587 209.375 209.741C207.224 205.726 212.878 203.866 216.595 202.504Z" fill="#477D82"/>
    </g>
    <path fill-rule="evenodd" clip-rule="evenodd" d="M240.87 227.478C240.754 223.147 240.483 218.489 240.981 214.02C241.457 209.789 242.621 205.728 245.409 202.353C248.428 198.694 252.732 196.399 256.587 193.73C260.877 190.757 264.634 187.354 266.079 181.743C266.519 180.051 266.684 178.293 266.515 176.554C266.333 174.7 265.719 172.912 264.897 171.241C264.501 170.435 263.523 170.104 262.718 170.501C261.913 170.898 261.58 171.875 261.98 172.68C262.629 174.001 263.131 175.409 263.278 176.874C263.412 178.234 263.274 179.608 262.931 180.93C261.695 185.71 258.392 188.523 254.733 191.056C250.638 193.893 246.107 196.393 242.897 200.281C236.659 207.843 237.371 218.385 237.615 227.564C237.642 228.464 238.389 229.173 239.287 229.147C240.185 229.126 240.892 228.377 240.87 227.478Z" fill="#39BDC8"/>
    <mask id="mask7_120_4" style="mask-type:luminance" maskUnits="userSpaceOnUse" x="237" y="170" width="30" height="60">
      <path d="M240.87 227.478C240.754 223.147 240.483 218.489 240.981 214.02C241.457 209.789 242.621 205.728 245.409 202.353C248.428 198.694 252.732 196.399 256.587 193.73C260.877 190.757 264.634 187.354 266.079 181.743C266.519 180.051 266.684 178.293 266.515 176.554C266.333 174.7 265.719 172.912 264.897 171.241C264.501 170.435 263.523 170.104 262.718 170.501C261.913 170.898 261.58 171.875 261.98 172.68C262.629 174.001 263.131 175.409 263.278 176.874C263.412 178.234 263.274 179.608 262.931 180.93C261.695 185.71 258.392 188.523 254.733 191.056C250.638 193.893 246.107 196.393 242.897 200.281C236.659 207.843 237.371 218.385 237.615 227.564C237.642 228.464 238.389 229.173 239.287 229.147C240.185 229.126 240.892 228.377 240.87 227.478Z" fill="white"/>
    </mask>
    <g mask="url(#mask7_120_4)">
      <path fill-rule="evenodd" clip-rule="evenodd" d="M257.722 168.2C260.19 170.221 261.138 182.653 262.921 185.252C263.344 185.874 263.995 188.308 264.845 188.448C265.503 188.554 266.066 187.598 266.345 187.155C267.34 185.586 267.888 183.681 268.363 181.905C269.601 177.326 270.282 171.81 268.891 167.196C268.659 166.416 268.344 165.631 267.906 164.943C265.985 161.941 262.48 163.452 260.374 165.332C259.401 166.203 258.54 167.182 257.722 168.2Z" fill="#477D82"/>
    </g>
    <path d="M260.3 180.656C268.732 180.656 275.568 173.82 275.568 165.387C275.568 156.955 268.732 150.118 260.3 150.118C251.867 150.118 245.031 156.955 245.031 165.387C245.031 173.82 251.867 180.656 260.3 180.656Z" fill="#F2058C"/>
    <mask id="mask8_120_4" style="mask-type:luminance" maskUnits="userSpaceOnUse" x="245" y="150" width="31" height="31">
      <path d="M260.3 180.656C268.732 180.656 275.568 173.82 275.568 165.387C275.568 156.955 268.732 150.118 260.3 150.118C251.867 150.118 245.031 156.955 245.031 165.387C245.031 173.82 251.867 180.656 260.3 180.656Z" fill="white"/>
    </mask>
    <g mask="url(#mask8_120_4)">
      <path fill-rule="evenodd" clip-rule="evenodd" d="M272.747 153.424C274.269 160.938 273.782 170.019 266.92 174.806C265.609 175.715 264.178 176.438 262.668 176.953C258.875 178.249 254.324 178.229 250.684 176.465C249.613 175.95 248.594 175.294 247.728 174.476C247.185 173.965 246.645 173.111 245.969 172.777C245.296 172.443 245.111 173.296 245.151 173.78C245.296 175.6 246.528 177.404 247.636 178.773C251.896 184.044 258.931 185.59 265.285 183.537C276.242 179.997 281.977 163.427 272.747 153.424Z" fill="#D9007B"/>
    </g>
    <path fill-rule="evenodd" clip-rule="evenodd" d="M270.845 142.782L271.449 146.663L275.332 147.266L271.449 147.869L270.845 151.75L270.242 147.869L266.363 147.266L270.242 146.663L270.845 142.782Z" fill="#F2058C"/>
    <path fill-rule="evenodd" clip-rule="evenodd" d="M276.903 140.149L277.257 142.427L279.537 142.781L277.257 143.135L276.903 145.414L276.549 143.135L274.271 142.781L276.549 142.427L276.903 140.149Z" fill="#F2058C"/>
    <path fill-rule="evenodd" clip-rule="evenodd" d="M276.903 150.052L277.257 152.33L279.537 152.684L277.257 153.038L276.903 155.317L276.549 153.038L274.271 152.684L276.549 152.33L276.903 150.052Z" fill="#F2058C"/>
    <path d="M263.944 167.486C263.663 166.998 263.303 166.687 262.865 166.556C262.429 166.423 261.815 166.422 261.025 166.553C260.236 166.683 259.536 166.764 258.927 166.794C258.316 166.825 257.754 166.781 257.237 166.663C256.723 166.545 256.24 166.324 255.815 166.013C255.383 165.699 255 165.25 254.663 164.667C254.082 163.661 253.928 162.651 254.199 161.637C254.471 160.623 255.108 159.756 256.112 159.033L255.009 157.122L256.437 156.298L257.555 158.235C258.696 157.775 259.774 157.738 260.789 158.124C261.805 158.51 262.649 159.282 263.319 160.443L260.738 161.933C260.326 161.219 259.869 160.77 259.372 160.585C258.872 160.401 258.375 160.452 257.882 160.737C257.394 161.019 257.096 161.375 256.987 161.807C256.879 162.239 256.967 162.698 257.248 163.186C257.509 163.638 257.849 163.926 258.27 164.048C258.69 164.171 259.338 164.17 260.214 164.045C261.09 163.92 261.831 163.852 262.435 163.84C263.039 163.828 263.59 163.891 264.091 164.027C264.581 164.159 265.041 164.387 265.443 164.699C265.845 165.01 266.202 165.437 266.515 165.978C267.099 166.99 267.256 167.994 266.991 168.989C266.724 169.984 266.069 170.858 265.028 171.61L266.054 173.386L264.635 174.206L263.614 172.438C262.317 173.012 261.123 173.125 260.029 172.776C258.935 172.428 258.035 171.643 257.331 170.423L259.911 168.934C260.32 169.642 260.802 170.088 261.357 170.271C261.912 170.455 262.504 170.365 263.135 170.001C263.658 169.699 263.992 169.322 264.137 168.869C264.28 168.417 264.216 167.956 263.944 167.486Z" fill="white"/>
    <path fill-rule="evenodd" clip-rule="evenodd" d="M229.811 227.708H45.4409V228.919H229.811V227.708Z" fill="#032C2F"/>
    <path fill-rule="evenodd" clip-rule="evenodd" d="M255.72 227.86H235.966V229.147H255.72V227.86Z" fill="#032C2F"/>
    <path d="M77.5863 150.923C86.4089 150.923 93.5609 143.771 93.5609 134.949C93.5609 126.126 86.4089 118.974 77.5863 118.974C68.7638 118.974 61.6117 126.126 61.6117 134.949C61.6117 143.771 68.7638 150.923 77.5863 150.923Z" fill="#59D4E8"/>
    <path fill-rule="evenodd" clip-rule="evenodd" d="M69.4615 137.015L73.6039 142.817C73.8256 143.127 74.1189 143.377 74.4584 143.547C74.7979 143.716 75.1732 143.799 75.5518 143.789C75.9312 143.779 76.3025 143.677 76.6337 143.49C76.9649 143.303 77.246 143.038 77.4525 142.716L85.7701 129.679C85.934 129.422 86.0457 129.134 86.0988 128.834C86.152 128.533 86.1455 128.224 86.0797 127.926C86.0139 127.628 85.8902 127.346 85.7156 127.096C85.541 126.846 85.3191 126.634 85.0627 126.471C83.9818 125.782 82.5453 126.1 81.8562 127.18L75.385 137.319L73.2412 134.316C72.4976 133.273 71.0467 133.031 70.002 133.775C69.7543 133.951 69.5436 134.175 69.3821 134.433C69.2206 134.692 69.1116 134.98 69.0613 135.281C69.0111 135.583 69.0205 135.891 69.0892 136.189C69.1579 136.486 69.2844 136.767 69.4615 137.015Z" fill="white"/>
  </g>
  <defs>
    <clipPath id="clip0_120_4">
      <rect width="312" height="312" fill="white"/>
    </clipPath>
  </defs>
</svg>
