<svg width="312" height="233" viewBox="0 0 312 233" fill="none"
  xmlns="http://www.w3.org/2000/svg">
  <g clip-path="url(#clip0_120_283)">
    <path fill-rule="evenodd" clip-rule="evenodd" d="M151.485 105.302L154.054 110.111L156.938 93.1492L141.321 102.174L145.618 102.615L138.022 112.131L97.4577 96.3456C97.0718 96.1957 96.6601 96.1238 96.2463 96.1339C95.8324 96.1441 95.4247 96.236 95.0466 96.4046C94.6685 96.5731 94.3275 96.8149 94.0433 97.1159C93.7592 97.4169 93.5375 97.7712 93.3909 98.1584L86.276 117.015L77.6213 117.45C77.0374 117.48 76.4733 117.672 75.9928 118.005C75.5123 118.338 75.1345 118.799 74.902 119.336L66.6002 138.536C65.9149 140.122 66.6453 141.967 68.2319 142.653C69.8186 143.338 71.6654 142.607 72.3506 141.021L79.8796 123.607L88.635 123.168C89.2441 123.137 89.831 122.929 90.3239 122.57C90.8168 122.211 91.1944 121.716 91.4104 121.145L98.1349 103.328L137.898 118.802C138.52 119.044 139.203 119.081 139.848 118.907C140.493 118.734 141.065 118.358 141.482 117.837L151.485 105.302Z" fill="#59D4E8"/>
    <path fill-rule="evenodd" clip-rule="evenodd" d="M71.3023 223.534C59.364 218.096 28.8729 192.863 43.8024 175.119C50.5051 167.154 61.2599 174.122 67.7978 165.737C76.3886 154.72 71.9649 139.119 88.7367 131.735C101.387 126.166 105.194 138.794 115.536 139.703C124.709 140.508 129.895 128.786 138.164 126.853C144.154 125.451 148.072 133.522 153.917 132.111C167.801 128.761 171.401 98.0476 193.891 89.8911C237.803 73.9652 275.54 116.588 259.408 149.087C237.431 193.357 191.455 167.694 186.756 172.244C184.006 174.905 187.751 179.158 186.962 183.02C185.748 188.972 177.659 192.645 174.894 197.8C171.033 204.991 172.565 216.24 172.772 224.273L71.3023 223.534Z" fill="#EEEEEE"/>
    <path fill-rule="evenodd" clip-rule="evenodd" d="M195.717 207.612C195.717 206.316 194.512 205.265 193.025 205.265H187.608C186.121 205.265 184.916 206.316 184.916 207.612V221.922C184.916 223.219 186.121 224.269 187.608 224.269H193.025C194.512 224.269 195.717 223.219 195.717 221.922V207.612Z" fill="#59D4E8"/>
    <path fill-rule="evenodd" clip-rule="evenodd" d="M209.975 201.008C209.975 200.386 209.69 199.789 209.186 199.349C208.683 198.908 208 198.661 207.283 198.661H201.866C201.154 198.661 200.467 198.908 199.963 199.349C199.459 199.789 199.174 200.386 199.174 201.008V221.922C199.174 222.545 199.459 223.142 199.963 223.582C200.467 224.022 201.154 224.269 201.866 224.269H207.283C208 224.269 208.683 224.022 209.186 223.582C209.69 223.142 209.975 222.545 209.975 221.922V201.008Z" fill="#59D4E8"/>
    <path fill-rule="evenodd" clip-rule="evenodd" d="M224.234 180.446C224.234 179.824 223.948 179.227 223.445 178.787C222.941 178.346 222.258 178.099 221.542 178.099H216.124C215.413 178.099 214.725 178.346 214.222 178.787C213.718 179.227 213.432 179.824 213.432 180.446V221.921C213.432 222.544 213.718 223.14 214.222 223.581C214.725 224.021 215.413 224.268 216.124 224.268H221.542C222.258 224.268 222.941 224.021 223.445 223.581C223.948 223.14 224.234 222.544 224.234 221.921V180.446Z" fill="#59D4E8"/>
    <path fill-rule="evenodd" clip-rule="evenodd" d="M238.492 197.367C238.492 196.744 238.207 196.147 237.703 195.707C237.19 195.263 236.508 195.017 235.8 195.019H230.383C229.671 195.019 228.984 195.267 228.48 195.707C227.977 196.147 227.691 196.744 227.691 197.367V221.921C227.691 222.544 227.977 223.141 228.48 223.581C228.994 224.024 229.675 224.271 230.383 224.268H235.8C236.517 224.268 237.2 224.021 237.703 223.581C238.207 223.141 238.492 222.544 238.492 221.921V197.367Z" fill="#59D4E8"/>
    <path fill-rule="evenodd" clip-rule="evenodd" d="M252.751 192.378C252.751 191.755 252.465 191.159 251.962 190.718C251.458 190.278 250.776 190.031 250.059 190.031H244.641C243.93 190.031 243.242 190.278 242.739 190.718C242.235 191.159 241.949 191.755 241.949 192.378V221.922C241.949 222.544 242.235 223.141 242.739 223.582C243.242 224.022 243.93 224.269 244.641 224.269H250.059C250.776 224.269 251.458 224.022 251.962 223.582C252.465 223.141 252.751 222.544 252.751 221.922V192.378Z" fill="#59D4E8"/>
    <path fill-rule="evenodd" clip-rule="evenodd" d="M83.3931 213.093C81.6844 204.164 80.9576 191.404 78.1216 182.748C76.3677 177.388 74.1352 172.018 71.3847 167.09C68.1092 161.219 63.8964 155.855 58.4725 151.82C56.6412 150.458 53.9178 147.969 51.5858 149.623C49.6939 150.964 49.0318 153.41 48.6195 155.564C47.7248 160.259 47.575 165.122 47.6241 169.89C47.8324 189.485 65.998 214.6 83.3931 213.093Z" fill="#39BDC8"/>
    <mask id="mask0_120_283" style="mask-type:luminance" maskUnits="userSpaceOnUse" x="47" y="149" width="37" height="65">
      <path d="M83.3931 213.093C81.6844 204.164 80.9576 191.404 78.1216 182.748C76.3677 177.388 74.1352 172.018 71.3847 167.09C68.1092 161.219 63.8964 155.855 58.4725 151.82C56.6412 150.458 53.9178 147.969 51.5858 149.623C49.6939 150.964 49.0318 153.41 48.6195 155.564C47.7248 160.259 47.575 165.122 47.6241 169.89C47.8324 189.485 65.998 214.6 83.3931 213.093Z" fill="white"/>
    </mask>
    <g mask="url(#mask0_120_283)">
      <path fill-rule="evenodd" clip-rule="evenodd" d="M42.6326 186.841C43.0781 188.967 48.3607 180.757 49.5064 182.548C53.8332 189.297 61.118 195 69.6468 193.731C71.2016 193.498 72.6699 192.986 73.9358 192.036C76.6455 190.002 78.418 186.427 82.5157 187.569C83.1452 187.745 83.7598 188.011 84.2985 188.383C84.9395 188.827 85.4711 189.398 85.9389 190.021C86.7188 191.054 87.3582 192.205 87.8253 193.414C91.0279 201.718 87.4472 215.069 76.9711 215.324C75.631 215.358 74.2919 215.169 73.0072 214.788C59.5831 210.802 48.2986 199.353 42.6326 186.841Z" fill="#4B8186"/>
    </g>
    <path fill-rule="evenodd" clip-rule="evenodd" d="M57.3185 169.349C55.6652 168.565 53.3273 166.807 51.8756 165.049C51.8078 164.967 51.7105 164.916 51.6051 164.906C51.4996 164.896 51.3945 164.928 51.3127 164.996C51.2722 165.029 51.2387 165.07 51.2142 165.116C51.1897 165.162 51.1747 165.213 51.17 165.265C51.1653 165.318 51.171 165.37 51.1869 165.42C51.2027 165.47 51.2282 165.516 51.2621 165.556C52.9735 167.627 55.8518 169.684 57.5953 170.331C58.3706 173.005 59.327 175.606 60.5165 178.03C61.9654 180.981 63.8375 183.722 65.7566 186.422C61.8174 185.244 56.055 182.576 52.9713 180.227C52.9298 180.194 52.8822 180.17 52.8312 180.156C52.7802 180.141 52.7269 180.137 52.6744 180.144C52.622 180.151 52.5714 180.168 52.5256 180.194C52.4798 180.221 52.4397 180.256 52.4078 180.299C52.3759 180.341 52.3527 180.389 52.3397 180.44C52.3266 180.491 52.3239 180.545 52.3317 180.597C52.3396 180.65 52.3578 180.7 52.3853 180.745C52.4129 180.79 52.4491 180.829 52.492 180.86C55.8397 183.413 62.2854 186.338 66.2892 187.4C66.3478 187.417 66.4034 187.421 66.4602 187.409C67.409 188.743 68.3584 190.069 69.2627 191.411C70.5259 193.284 71.7215 195.207 72.8539 197.174C69.1323 196.863 63.4372 195.465 60.1927 193.813C60.099 193.765 59.9899 193.755 59.8894 193.787C59.7889 193.82 59.7052 193.89 59.6568 193.984C59.558 194.18 59.6355 194.421 59.8317 194.52C63.3144 196.294 69.5494 197.785 73.3258 198.004C74.8002 200.619 76.162 203.298 77.4261 206.001C77.4718 206.095 77.5527 206.168 77.6513 206.203C77.75 206.238 77.8586 206.233 77.9536 206.189C78.0486 206.145 78.1224 206.065 78.1592 205.967C78.196 205.869 78.1928 205.76 78.1503 205.665C76.4193 201.96 74.5008 198.305 72.3715 194.797C72.3812 194.774 72.387 194.751 72.3888 194.727C73.2976 189.697 73.2451 182.815 73.124 177.73C73.1206 177.625 73.0759 177.526 72.9996 177.454C72.9232 177.382 72.8216 177.343 72.7166 177.345C72.6116 177.348 72.5119 177.392 72.4391 177.467C72.3663 177.543 72.3264 177.644 72.328 177.749C72.4413 182.516 72.4974 188.878 71.7426 193.771C71.1517 192.824 70.5481 191.888 69.9233 190.966C66.9843 186.607 63.5573 182.415 61.2338 177.679C61.1091 177.429 60.9885 177.176 60.872 176.922C62.3568 172.615 63.8126 168.481 64.5835 163.954C64.6005 163.849 64.5755 163.743 64.5139 163.657C64.4524 163.57 64.3593 163.512 64.255 163.495C64.2036 163.486 64.151 163.487 64.1002 163.499C64.0494 163.511 64.0014 163.532 63.959 163.563C63.9166 163.593 63.8807 163.632 63.8532 163.676C63.8258 163.72 63.8073 163.769 63.799 163.821C63.0848 168.022 61.7698 171.881 60.3979 175.858C58.0733 170.452 56.7972 164.33 55.9764 158.574C55.9615 158.47 55.9058 158.376 55.8215 158.312C55.7372 158.249 55.6311 158.222 55.5268 158.237C55.4224 158.252 55.3282 158.307 55.2649 158.392C55.2016 158.476 55.1745 158.582 55.1894 158.686C55.6863 162.186 56.3567 165.82 57.3185 169.349Z" fill="white"/>
    <path fill-rule="evenodd" clip-rule="evenodd" d="M82.3832 221.285C77.121 215.149 70.9246 205.624 64.9129 200.197C61.192 196.835 57.0979 193.678 52.7989 191.09C47.6781 188.006 42.0584 185.728 36.0908 185.01C34.0761 184.768 30.8752 184.05 29.8061 186.356C28.9386 188.227 29.508 190.406 30.1412 192.251C31.5243 196.269 33.5564 200.087 35.7001 203.745C44.5155 218.774 69.6258 230.131 82.3832 221.285Z" fill="#39BDC8"/>
    <mask id="mask1_120_283" style="mask-type:luminance" maskUnits="userSpaceOnUse" x="29" y="184" width="54" height="41">
      <path d="M82.3832 221.285C77.121 215.149 70.9246 205.624 64.9129 200.197C61.192 196.835 57.0979 193.678 52.7989 191.09C47.6781 188.006 42.0584 185.728 36.0908 185.01C34.0761 184.768 30.8752 184.05 29.8061 186.356C28.9386 188.227 29.508 190.406 30.1412 192.251C31.5243 196.269 33.5564 200.087 35.7001 203.745C44.5155 218.774 69.6258 230.131 82.3832 221.285Z" fill="white"/>
    </mask>
    <g mask="url(#mask1_120_283)">
      <path fill-rule="evenodd" clip-rule="evenodd" d="M39.3352 219.03C40.618 220.474 41.0682 211.805 42.7435 212.681C49.0628 215.978 57.2032 217.162 63.224 212.415C64.3208 211.549 65.2279 210.505 65.7852 209.213C66.9778 206.447 66.7668 202.906 70.433 201.977C70.9962 201.834 71.5881 201.768 72.1682 201.817C72.859 201.877 73.5215 202.083 74.1574 202.357C75.2157 202.81 76.2172 203.415 77.1118 204.142C83.2508 209.136 86.3844 221.02 78.413 225.843C77.3939 226.461 76.2768 226.906 75.1172 227.18C62.998 230.033 49.2336 226.183 39.3352 219.03Z" fill="#4B8186"/>
    </g>
    <path fill-rule="evenodd" clip-rule="evenodd" d="M42.896 199.05C41.2738 199.175 38.693 198.85 36.7964 198.135C36.7081 198.102 36.6104 198.105 36.5247 198.144C36.4389 198.183 36.372 198.254 36.3385 198.342C36.322 198.386 36.3142 198.432 36.3158 198.479C36.3173 198.526 36.3282 198.571 36.3476 198.614C36.367 198.656 36.3946 198.694 36.4289 198.726C36.4632 198.757 36.5034 198.782 36.5472 198.797C38.7824 199.64 41.9119 199.956 43.5432 199.685C45.3222 201.406 47.2093 202.991 49.1976 204.336C51.6189 205.973 54.2742 207.261 56.9476 208.497C53.3878 209.328 47.7628 209.814 44.3456 209.363C44.2991 209.356 44.2516 209.359 44.206 209.37C44.1604 209.382 44.1175 209.402 44.08 209.431C44.0424 209.459 44.011 209.495 43.9874 209.535C43.9637 209.576 43.9485 209.621 43.9425 209.668C43.9365 209.714 43.9398 209.762 43.9524 209.807C43.965 209.852 43.9865 209.895 44.0156 209.932C44.0448 209.968 44.0811 209.999 44.1223 210.022C44.1634 210.045 44.2087 210.059 44.2555 210.064C47.9664 210.555 54.2319 209.965 57.7908 209.017C57.8433 209.004 57.8881 208.982 57.9268 208.948C59.248 209.558 60.5661 210.162 61.8567 210.798C63.6586 211.686 65.4307 212.642 67.173 213.659C64.1641 215.063 59.1517 216.499 55.9186 216.658C55.8249 216.662 55.7367 216.703 55.6733 216.772C55.6099 216.841 55.5765 216.933 55.5805 217.026C55.591 217.221 55.7574 217.373 55.9524 217.363C59.4232 217.193 64.8932 215.59 67.904 214.091C70.1968 215.458 72.4307 216.924 74.6 218.451C74.6769 218.504 74.7714 218.524 74.863 218.508C74.9547 218.491 75.0362 218.439 75.0901 218.363C75.1439 218.287 75.1657 218.193 75.1508 218.101C75.1359 218.01 75.0855 217.927 75.0104 217.872C72.0383 215.778 68.9435 213.805 65.7512 212.038C65.7485 212.016 65.7426 211.995 65.7335 211.976C64.2134 207.694 61.1332 202.406 58.7941 198.536C58.7451 198.457 58.6667 198.4 58.576 198.378C58.4852 198.356 58.3895 198.371 58.3096 198.419C58.2297 198.467 58.1721 198.545 58.1494 198.636C58.1267 198.726 58.1406 198.822 58.1883 198.902C60.3811 202.531 63.234 207.415 64.8129 211.524C63.9386 211.054 63.0593 210.599 62.17 210.163C57.9767 208.097 53.4811 206.377 49.5963 203.748C49.3894 203.61 49.1848 203.468 48.9827 203.324C48.2263 199.345 47.5238 195.512 46.119 191.677C46.086 191.589 46.0195 191.518 45.934 191.479C45.8485 191.439 45.751 191.436 45.6627 191.468C45.6192 191.484 45.5793 191.508 45.5452 191.54C45.5112 191.571 45.4837 191.609 45.4644 191.651C45.4451 191.693 45.4343 191.739 45.4327 191.785C45.4311 191.832 45.4387 191.878 45.455 191.921C46.7594 195.479 47.4488 199.037 48.1468 202.712C43.9655 199.567 40.2767 195.406 37.1012 191.327C37.0436 191.253 36.959 191.205 36.866 191.194C36.773 191.182 36.6792 191.208 36.6052 191.266C36.5312 191.323 36.4832 191.408 36.4716 191.501C36.46 191.594 36.4859 191.688 36.5435 191.762C38.4727 194.243 40.5948 196.751 42.896 199.05Z" fill="white"/>
    <path fill-rule="evenodd" clip-rule="evenodd" d="M232.774 173.568L221.257 154.451H244.294L232.774 173.568Z" fill="#023C41"/>
    <path fill-rule="evenodd" clip-rule="evenodd" d="M245.153 153.024H220.398L209.741 135.334H255.81L245.153 153.024Z" fill="#4B8186"/>
    <path fill-rule="evenodd" clip-rule="evenodd" d="M256.669 133.907H208.882L198.225 116.217H267.327L256.669 133.907Z" fill="#39BDC8"/>
    <path fill-rule="evenodd" clip-rule="evenodd" d="M268.186 114.79H197.366L186.756 97.1794H278.796L268.186 114.79Z" fill="#CAA5F1"/>
    <path fill-rule="evenodd" clip-rule="evenodd" d="M125.102 154.79C119.086 147.899 85.2883 148.8 79.7476 155.766C63.5945 176.063 70.6651 223.94 70.6651 223.94L139.815 224.502C130.752 213.098 135.116 166.246 125.102 154.79Z" fill="#F2058C"/>
    <mask id="mask2_120_283" style="mask-type:luminance" maskUnits="userSpaceOnUse" x="69" y="150" width="71" height="75">
      <path d="M125.102 154.79C119.086 147.899 85.2884 148.8 79.7476 155.766C63.5946 176.063 70.6652 223.94 70.6652 223.94L139.815 224.502C130.752 213.098 135.116 166.246 125.102 154.79Z" fill="white"/>
    </mask>
    <g mask="url(#mask2_120_283)">
      <path fill-rule="evenodd" clip-rule="evenodd" d="M120.148 179.723C116.446 196.838 134.008 198.67 119.356 218.781C115.926 223.492 118.637 226.347 123.718 230.15C131.249 235.786 142.638 227.527 145.783 220.427C148.116 215.155 120.843 185.297 120.148 179.723Z" fill="#6600D2"/>
    </g>
    <path fill-rule="evenodd" clip-rule="evenodd" d="M208.046 109.792C208.519 108.918 208.306 107.887 207.572 107.49C206.839 107.093 205.859 107.478 205.385 108.352L177.266 160.291C176.795 161.162 177.008 162.193 177.741 162.59C178.475 162.987 179.455 162.602 179.926 161.731L208.046 109.792Z" fill="#023C41"/>
    <path fill-rule="evenodd" clip-rule="evenodd" d="M180.354 152.048L162.191 175.372L121.914 152.78C121.914 152.78 109.21 170.085 127.356 195.968C133.65 204.942 151.383 209.127 162.371 204.238C185 194.171 189.674 165.843 190.673 158.181C190.673 158.181 192.249 153.876 192.588 152.485C195.446 140.784 191.071 140.829 191.071 140.829C191.071 140.829 185.653 151.926 185.561 145.35C185.549 144.304 184.092 143.737 182.989 145.379C181.588 147.462 180.354 152.048 180.354 152.048Z" fill="#FAC0E1"/>
    <mask id="mask3_120_283" style="mask-type:luminance" maskUnits="userSpaceOnUse" x="117" y="140" width="77" height="67">
      <path d="M180.354 152.048L162.191 175.372L121.914 152.78C121.914 152.78 109.21 170.085 127.356 195.968C133.65 204.942 151.383 209.127 162.371 204.238C185 194.171 189.674 165.843 190.673 158.181C190.673 158.181 192.249 153.876 192.588 152.485C195.446 140.784 191.071 140.829 191.071 140.829C191.071 140.829 185.653 151.926 185.561 145.35C185.549 144.304 184.092 143.737 182.989 145.379C181.588 147.462 180.354 152.048 180.354 152.048Z" fill="white"/>
    </mask>
    <g mask="url(#mask3_120_283)">
      <path fill-rule="evenodd" clip-rule="evenodd" d="M193.621 137.285C194.947 137.709 191.977 139.22 191.288 140.445C190.42 141.994 190.476 142.577 190.791 143.52C191.818 146.597 192.861 149.879 189.25 153.01C188.418 153.729 185.05 154.867 185.05 154.867C185.05 154.867 186.507 155.929 186.813 156.203C187.717 157.009 188.111 158.285 188.107 159.465C188.095 162.761 186.463 166.431 185.09 169.356C181.264 177.52 175.539 184.58 167.855 189.334C164.463 191.429 160.721 193.018 156.831 193.891C155.727 194.139 154.62 194.377 153.511 194.604C153.037 194.701 152.312 194.821 152.062 195.31C151.484 196.453 153.73 198.17 154.363 198.799C157.293 201.71 159.917 205.615 163.862 207.152C172.772 210.623 180.368 201.702 185.209 195.478C187.379 192.687 189.401 189.783 191.264 186.778C192.809 184.288 194.179 181.697 195.488 179.075C196.595 176.853 197.646 174.598 198.582 172.296C203.001 161.393 206.122 144.129 193.621 137.285Z" fill="#D799BC"/>
      <path fill-rule="evenodd" clip-rule="evenodd" d="M149.03 160.189C149.105 161.178 150.021 162.578 150.292 163.587C151 166.24 151.343 169.07 151.116 171.812C150.694 176.957 147.103 182.241 149.253 187.424C152.079 194.244 162.259 192.736 162.371 201.172C162.383 202.343 162.243 203.505 161.901 204.624C159.241 213.347 147.592 215.628 139.765 214.481C124.756 212.28 113.498 200.053 109.397 185.907C106.192 174.853 106.224 161.742 111.181 151.203C114.143 144.904 120.739 136.855 128.698 139.398C132.348 140.563 146.561 157.398 149.03 160.189Z" fill="#F2058C"/>
    </g>
    <path fill-rule="evenodd" clip-rule="evenodd" d="M108.118 140.699H98.2927C99.3437 144.719 97.0346 147.978 95.7049 150.665C98.4798 156.055 106.032 153.799 108.043 150.048C106.14 146.193 106.39 143.747 108.118 140.699Z" fill="#FAC0E1"/>
    <mask id="mask4_120_283" style="mask-type:luminance" maskUnits="userSpaceOnUse" x="95" y="140" width="14" height="14">
      <path d="M108.118 140.699H98.2927C99.3437 144.719 97.0346 147.978 95.7049 150.665C98.4798 156.055 106.032 153.799 108.043 150.048C106.14 146.193 106.39 143.747 108.118 140.699Z" fill="white"/>
    </mask>
    <g mask="url(#mask4_120_283)">
      <path fill-rule="evenodd" clip-rule="evenodd" d="M100.667 137.523C100.898 138.031 99.5061 140.992 99.7912 141.465C100.487 142.615 101.22 143.731 102.027 144.791C102.796 145.805 103.636 146.817 104.58 147.645C105.473 148.431 106.535 149.06 107.579 149.573C108.011 149.786 108.566 150.05 109.045 149.891C109.669 149.683 109.875 148.651 110.007 148.058C110.442 146.107 110.169 143.854 109.45 142.017C108.001 138.303 104.139 136.417 100.667 137.523Z" fill="#D799BC"/>
    </g>
    <path fill-rule="evenodd" clip-rule="evenodd" d="M104.97 125.685C109.499 125.685 113.177 130.178 113.177 135.713C113.177 141.248 112.671 146.269 108.142 146.269C103.613 146.269 96.762 141.248 96.762 135.713C96.762 130.178 100.441 125.685 104.97 125.685Z" fill="#FAC0E1"/>
    <path fill-rule="evenodd" clip-rule="evenodd" d="M95.7057 142.733C97.5609 143.548 98.7234 142.925 100.089 143.105C101.176 143.249 102.215 143.24 103.298 143.058C104.763 142.812 107.972 141.718 107.757 139.666C107.625 138.37 106.865 137.276 106.865 135.916C106.865 135.407 106.961 134.586 107.526 134.387C108.656 133.988 108.39 136.378 108.537 136.893C108.637 137.229 108.887 137.782 109.325 137.554C109.799 137.306 109.827 136.66 109.831 136.197C109.851 135.024 109.321 133.944 109.481 132.757C110.727 132.956 112.216 132.908 113.314 132.224C116.356 130.333 115.731 125.52 113.279 123.467C108.187 119.205 98.9504 121.508 95.8172 127.122C94.2008 130.019 94.3879 133.684 95.0209 136.827C94.2127 136.896 93.6634 137.753 93.3011 138.379C92.2142 140.248 94.4397 142.179 95.7057 142.733Z" fill="#032C2F"/>
    <path fill-rule="evenodd" clip-rule="evenodd" d="M219.638 219.098H245.372V224.847H219.638V219.098Z" fill="#023C41"/>
    <path fill-rule="evenodd" clip-rule="evenodd" d="M244.397 219.095H220.613L226.561 202.899H238.449L244.397 219.095Z" fill="#023C41"/>
    <mask id="mask5_120_283" style="mask-type:luminance" maskUnits="userSpaceOnUse" x="220" y="202" width="25" height="18">
      <path d="M244.397 219.095H220.613L226.561 202.899H238.449L244.397 219.095Z" fill="white"/>
    </mask>
    <g mask="url(#mask5_120_283)">
      <path fill-rule="evenodd" clip-rule="evenodd" d="M232.091 199.811C233.146 201.265 233.959 202.945 234.715 204.569C235.296 205.807 235.878 207.061 236.2 208.391C236.363 209.068 236.451 209.748 236.391 210.449C236.001 214.892 229.874 215.832 226.402 215.024C224.627 214.609 222.899 213.387 221.024 213.594C218.667 213.857 218.81 218.149 219.837 219.626C221.748 222.377 225.845 221.692 228.926 222.114C234.982 222.942 243.195 223.679 247.355 218.627C249.031 216.584 248.701 212.854 248.136 210.222C247.829 208.785 232.808 201.081 232.091 199.811Z" fill="#032C2F"/>
    </g>
    <path fill-rule="evenodd" clip-rule="evenodd" d="M187.984 191.202L278.261 208.989L277.422 213.249L187.145 195.462L187.984 191.202Z" fill="#39BDC8"/>
    <path fill-rule="evenodd" clip-rule="evenodd" d="M187.949 191.201L274.767 208.306L274.348 210.437L187.53 193.331L187.949 191.201Z" fill="#CAA5F1"/>
    <path d="M195.971 169.435C195.971 167.44 196.511 165.82 197.583 164.576C198.659 163.332 200.071 162.71 201.812 162.71C203.58 162.71 205.002 163.325 206.078 164.554C207.154 165.783 207.69 167.447 207.69 169.547V171.156C207.69 173.167 207.154 174.783 206.078 176.005C205.002 177.226 203.593 177.836 201.85 177.836C200.095 177.836 198.677 177.222 197.594 175.993C196.511 174.764 195.971 173.107 195.971 171.022V169.435ZM199.531 171.156C199.531 172.05 199.746 172.769 200.171 173.312C200.597 173.856 201.158 174.128 201.85 174.128C202.542 174.128 203.092 173.852 203.5 173.301C203.908 172.75 204.112 172.012 204.112 171.089V169.435C204.112 168.542 203.908 167.82 203.5 167.268C203.092 166.717 202.528 166.442 201.812 166.442C201.133 166.442 200.583 166.713 200.161 167.257C199.742 167.801 199.531 168.557 199.531 169.525V171.156ZM208.877 187.734C208.877 185.723 209.42 184.104 210.51 182.875C211.596 181.646 213.005 181.032 214.738 181.032C216.492 181.032 217.911 181.639 218.994 182.853C220.074 184.067 220.613 185.738 220.613 187.868V189.477C220.613 191.473 220.084 193.085 219.022 194.314C217.956 195.543 216.541 196.158 214.773 196.158C212.994 196.158 211.565 195.539 210.489 194.303C209.417 193.067 208.877 191.428 208.877 189.388V187.734ZM212.437 189.477C212.437 190.296 212.659 190.996 213.105 191.577C213.551 192.158 214.105 192.449 214.773 192.449C216.281 192.449 217.036 191.443 217.036 189.433V187.734C217.036 186.841 216.825 186.122 216.406 185.578C215.987 185.035 215.43 184.763 214.738 184.763C214.043 184.763 213.489 185.035 213.067 185.578C212.648 186.122 212.437 186.863 212.437 187.802V189.477ZM202.905 193.276L200.293 191.577L213.475 166.151L216.091 167.849L202.905 193.276Z" fill="#F2058C"/>
    <path d="M271.02 206.458C263.019 208.232 255.094 203.183 253.321 195.182C251.547 187.181 256.595 179.256 264.597 177.483C272.598 175.709 280.522 180.758 282.296 188.759C284.069 196.76 279.021 204.684 271.02 206.458Z" fill="#F2058C"/>
    <mask id="mask6_120_283" style="mask-type:luminance" maskUnits="userSpaceOnUse" x="252" y="177" width="31" height="30">
      <path d="M271.02 206.458C263.019 208.232 255.094 203.183 253.321 195.182C251.547 187.181 256.595 179.257 264.597 177.483C272.598 175.709 280.522 180.758 282.296 188.759C284.069 196.76 279.021 204.684 271.02 206.458Z" fill="white"/>
    </mask>
    <g mask="url(#mask6_120_283)">
      <path fill-rule="evenodd" clip-rule="evenodd" d="M253.481 183.237C253.618 190.687 255.99 199.2 263.508 202.3C264.943 202.887 266.453 203.271 267.994 203.442C271.866 203.875 276.179 202.898 279.262 200.459C280.17 199.745 280.999 198.908 281.648 197.95C282.056 197.351 282.389 196.427 282.96 195.968C283.528 195.509 283.883 196.28 283.947 196.747C284.192 198.505 283.402 200.475 282.64 202.007C279.706 207.905 273.356 210.852 266.895 210.24C255.754 209.186 246.828 194.669 253.481 183.237Z" fill="#D9007B"/>
    </g>
    <path d="M271.133 193.323C270.763 192.919 270.357 192.7 269.914 192.667C269.472 192.633 268.889 192.761 268.167 193.051C267.445 193.341 266.799 193.565 266.227 193.721C265.654 193.879 265.111 193.956 264.596 193.952C264.084 193.949 263.579 193.841 263.11 193.635C262.634 193.428 262.176 193.083 261.734 192.6C260.971 191.768 260.612 190.842 260.657 189.823C260.701 188.803 261.123 187.847 261.924 186.949L260.475 185.369L261.657 184.286L263.125 185.889C264.111 185.213 265.126 184.951 266.171 185.103C267.215 185.256 268.178 185.812 269.058 186.772L266.923 188.728C266.382 188.137 265.854 187.808 265.343 187.737C264.831 187.667 264.37 187.82 263.962 188.194C263.558 188.564 263.35 188.965 263.338 189.398C263.326 189.83 263.505 190.247 263.875 190.651C264.218 191.025 264.601 191.227 265.026 191.254C265.45 191.283 266.065 191.145 266.87 190.842C267.675 190.539 268.363 190.319 268.934 190.181C269.505 190.043 270.041 189.986 270.545 190.01C271.038 190.032 271.522 190.152 271.968 190.363C272.415 190.574 272.844 190.903 273.255 191.352C274.022 192.189 274.383 193.108 274.34 194.108C274.296 195.108 273.858 196.075 273.029 197.008L274.376 198.478L273.202 199.554L271.861 198.091C270.752 198.908 269.642 199.266 268.531 199.166C267.419 199.065 266.401 198.51 265.476 197.501L267.611 195.545C268.148 196.13 268.699 196.452 269.264 196.51C269.829 196.567 270.372 196.358 270.894 195.879C271.327 195.482 271.564 195.055 271.606 194.594C271.648 194.136 271.49 193.712 271.133 193.323Z" fill="white"/>
    <path fill-rule="evenodd" clip-rule="evenodd" d="M70.6696 224.135H252.95V225.332H70.6696V224.135Z" fill="#032C2F"/>
    <path fill-rule="evenodd" clip-rule="evenodd" d="M45.0539 224.285H64.584V225.557H45.0539V224.285Z" fill="#032C2F"/>
  </g>
  <defs>
    <clipPath id="clip0_120_283">
      <rect width="312" height="312" fill="white"/>
    </clipPath>
  </defs>
</svg>
