<svg width="360" height="236" viewBox="0 0 360 236" fill="none"
  xmlns="http://www.w3.org/2000/svg">
  <path fill-rule="evenodd" clip-rule="evenodd" d="M285.621 35.4307L292.956 46.3591L295.775 4.92492L260.454 30.3798L270.88 30.3989L254.943 55.0914L153.7 27.003C152.737 26.7366 151.731 26.6635 150.74 26.788C149.748 26.9126 148.791 27.2322 147.924 27.7285C147.057 28.2248 146.297 28.888 145.687 29.6797C145.077 30.4714 144.631 31.376 144.373 32.3413L131.851 79.3514L111.171 82.4912C109.776 82.7037 108.468 83.3019 107.394 84.2183C106.321 85.1347 105.525 86.3328 105.097 87.6775L89.8082 135.8C88.5464 139.775 90.7472 144.029 94.7236 145.291C98.7002 146.553 102.958 144.349 104.22 140.375L118.085 96.73L139.006 93.5562C140.461 93.3341 141.821 92.6929 142.917 91.7109C144.014 90.7288 144.801 89.4485 145.182 88.0264L157.018 43.6091L256.259 71.1428C257.812 71.5734 259.462 71.4966 260.968 70.9235C262.475 70.3503 263.759 69.3108 264.633 67.9567L285.621 35.4307Z" fill="#59D4E8"/>
  <path fill-rule="evenodd" clip-rule="evenodd" d="M63.4477 234.155C61.3084 217.827 49.4218 214.928 38.4336 209.251C28.6076 204.167 18.3436 196.973 10.7467 187.823C1.45414 176.636 -2.81311 160.423 4.95222 146.501C7.86071 141.284 11.7069 136.75 15.9854 133.193C19.3992 130.357 23.1892 128.321 27.1814 127.012C59.6633 116.353 67.1366 172.562 97.8498 168.038C116.632 165.272 128.799 144.548 139.574 127.997C149.866 112.186 162.078 97.7866 177.744 90.1813C195.795 81.421 212.629 94.4549 229.563 101.287C239.468 105.283 249.788 107.14 260.226 106.419C285.116 104.7 284.892 64.1468 307.682 50.759C354.235 23.4103 378.34 86.9164 340.198 132.665C329.266 145.779 313.954 155.628 305.594 171.721C295.515 191.133 297.924 211.205 299.906 232.828L63.4477 234.155Z" fill="#EEEEEE"/>
  <path fill-rule="evenodd" clip-rule="evenodd" d="M68.1572 232.789C67.8426 228.718 66.4836 224.665 65.1957 220.819C61.7596 210.582 56.81 201.389 48.0385 194.787C43.7774 191.581 37.997 188.579 32.4718 189.336C29.8546 189.694 26.9348 191.205 27.0653 194.23C27.2908 199.638 33.7775 203.864 37.7418 206.493C47.4273 212.92 65.4094 219.881 68.1572 232.789Z" fill="#39BDC8"/>
  <mask id="mask0_1_2" style="mask-type:luminance" maskUnits="userSpaceOnUse" x="27" y="189" width="42" height="44">
    <path d="M68.1572 232.789C67.8426 228.718 66.4836 224.665 65.1957 220.819C61.7596 210.582 56.81 201.389 48.0385 194.787C43.7774 191.581 37.997 188.579 32.4718 189.336C29.8546 189.694 26.9348 191.205 27.0653 194.23C27.2908 199.638 33.7775 203.864 37.7418 206.493C47.4273 212.92 65.4094 219.881 68.1572 232.789Z" fill="white"/>
  </mask>
  <g mask="url(#mask0_1_2)">
    <path fill-rule="evenodd" clip-rule="evenodd" d="M29.4427 186.554C28.7012 188.402 29.0149 190.591 29.3999 192.481C29.7422 194.185 30.2199 195.918 31.0969 197.429C34.277 202.891 40.9653 205.187 46.8834 206.085C49.5573 206.492 53.8426 206.763 55.9389 204.567C57.3793 203.055 56.3382 201.6 56.2526 199.903C56.2312 199.454 56.5878 199.347 56.9657 199.461C59.0121 200.06 60.7661 202.977 61.8642 204.595C65.1584 209.479 67.2618 215.39 68.1317 221.202C68.4383 223.248 68.8947 226.107 67.5756 227.918C65.9213 230.193 62.1565 228.453 60.2384 227.555C59.6823 227.291 59.1262 227.013 58.5771 226.728C57.9425 226.4 57.3079 226.057 56.6876 225.715C55.7107 225.18 54.7552 224.61 53.8069 224.039C48.01 220.574 20.3088 206.178 16.6581 199.369C12.8505 192.26 22.8615 188.966 29.4427 186.554Z" fill="#477D82"/>
  </g>
  <path fill-rule="evenodd" clip-rule="evenodd" d="M71.1356 232.789C71.4501 228.718 72.8092 224.665 74.097 220.819C77.5332 210.582 82.4827 201.389 91.2542 194.787C95.5153 191.581 101.296 188.579 106.821 189.336C109.438 189.694 112.358 191.205 112.227 194.23C112.002 199.638 105.515 203.864 101.551 206.493C91.8655 212.92 73.8833 219.881 71.1356 232.789Z" fill="#39BDC8"/>
  <mask id="mask1_1_2" style="mask-type:luminance" maskUnits="userSpaceOnUse" x="71" y="189" width="42" height="44">
    <path d="M71.1356 232.789C71.4501 228.718 72.8092 224.665 74.097 220.819C77.5332 210.582 82.4827 201.389 91.2542 194.787C95.5153 191.581 101.296 188.579 106.821 189.336C109.438 189.694 112.358 191.205 112.227 194.23C112.002 199.638 105.515 203.864 101.551 206.493C91.8655 212.92 73.8833 219.881 71.1356 232.789Z" fill="white"/>
  </mask>
  <g mask="url(#mask1_1_2)">
    <path fill-rule="evenodd" clip-rule="evenodd" d="M109.85 186.554C110.592 188.402 110.278 190.591 109.893 192.481C109.551 194.185 109.073 195.918 108.196 197.429C105.016 202.891 98.3275 205.187 92.4094 206.085C89.7355 206.492 85.4502 206.763 83.3539 204.567C81.9135 203.055 82.9546 201.6 83.0402 199.903C83.0616 199.454 82.705 199.347 82.3271 199.461C80.2807 200.06 78.5267 202.977 77.4286 204.595C74.1344 209.479 72.031 215.39 71.1611 221.202C70.8545 223.248 70.3981 226.107 71.7172 227.918C73.3715 230.193 77.1363 228.453 79.0544 227.555C79.6105 227.291 80.1667 227.013 80.7157 226.728C81.3503 226.4 81.9849 226.057 82.6052 225.715C83.5821 225.18 84.5376 224.61 85.4859 224.039C91.2828 220.574 118.984 206.178 122.635 199.369C126.442 192.26 116.431 188.966 109.85 186.554Z" fill="#477D82"/>
  </g>
  <path fill-rule="evenodd" clip-rule="evenodd" d="M66.8616 230.776C67.0663 223.109 67.5466 214.859 66.6648 206.947C65.8224 199.456 63.7598 192.263 58.8236 186.289C53.4779 179.809 45.8571 175.745 39.0313 171.019C31.4341 165.755 24.7815 159.729 22.2229 149.793C21.4435 146.798 21.1522 143.685 21.4513 140.606C21.7741 137.323 22.8606 134.157 24.3171 131.197C25.0177 129.771 26.7498 129.185 28.1747 129.888C29.5997 130.591 30.1902 132.32 29.4816 133.746C28.3322 136.085 27.4426 138.577 27.1828 141.172C26.9466 143.58 27.1907 146.013 27.7969 148.354C29.9855 156.818 35.8349 161.799 42.3142 166.284C49.5651 171.307 57.5875 175.735 63.2716 182.62C74.3171 196.009 73.0575 214.675 72.6245 230.929C72.5772 232.522 71.2546 233.779 69.6643 233.733C68.074 233.694 66.8223 232.369 66.8616 230.776Z" fill="#39BDC8"/>
  <mask id="mask2_1_2" style="mask-type:luminance" maskUnits="userSpaceOnUse" x="21" y="129" width="52" height="105">
    <path d="M66.8616 230.776C67.0663 223.109 67.5466 214.859 66.6648 206.947C65.8224 199.456 63.7598 192.263 58.8236 186.289C53.4779 179.809 45.8571 175.745 39.0313 171.019C31.4341 165.755 24.7815 159.729 22.2229 149.793C21.4435 146.798 21.1522 143.685 21.4513 140.606C21.7741 137.323 22.8606 134.157 24.3171 131.197C25.0177 129.771 26.7498 129.185 28.1747 129.888C29.5997 130.591 30.1902 132.32 29.4816 133.746C28.3322 136.085 27.4426 138.577 27.1828 141.172C26.9466 143.58 27.1907 146.013 27.7969 148.354C29.9855 156.818 35.8349 161.799 42.3142 166.284C49.5651 171.307 57.5875 175.735 63.2716 182.62C74.3171 196.009 73.0575 214.675 72.6245 230.929C72.5772 232.522 71.2546 233.779 69.6643 233.733C68.074 233.694 66.8223 232.369 66.8616 230.776Z" fill="white"/>
  </mask>
  <g mask="url(#mask2_1_2)">
    <path fill-rule="evenodd" clip-rule="evenodd" d="M37.0218 125.813C32.6504 129.392 30.9731 151.404 27.8157 156.006C27.0668 157.108 25.9141 161.419 24.4079 161.665C23.2434 161.854 22.2459 160.162 21.7519 159.376C19.9913 156.598 19.0203 153.225 18.1784 150.081C15.9875 141.972 14.7802 132.205 17.2438 124.035C17.6549 122.655 18.2123 121.264 18.9874 120.045C22.3902 114.73 28.5953 117.405 32.3252 120.735C34.0476 122.277 35.5728 124.01 37.0218 125.813Z" fill="#477D82"/>
  </g>
  <path d="M32.4555 147.872C17.5236 147.872 5.41884 135.767 5.41884 120.835C5.41884 105.903 17.5236 93.7983 32.4555 93.7983C47.3874 93.7983 59.492 105.903 59.492 120.835C59.492 135.767 47.3874 147.872 32.4555 147.872Z" fill="#F2058C"/>
  <mask id="mask3_1_2" style="mask-type:luminance" maskUnits="userSpaceOnUse" x="5" y="93" width="55" height="55">
    <path d="M32.4555 147.872C17.5236 147.872 5.41884 135.767 5.41884 120.835C5.41884 105.903 17.5236 93.7983 32.4555 93.7983C47.3874 93.7983 59.492 105.903 59.492 120.835C59.492 135.767 47.3874 147.872 32.4555 147.872Z" fill="white"/>
  </mask>
  <g mask="url(#mask3_1_2)">
    <path fill-rule="evenodd" clip-rule="evenodd" d="M10.4147 99.6514C7.71946 112.957 8.5823 129.036 20.7324 137.513C23.0542 139.123 25.5882 140.402 28.262 141.314C34.9788 143.61 43.0361 143.574 49.4819 140.451C51.3786 139.539 53.1826 138.376 54.7156 136.929C55.6782 136.023 56.6337 134.512 57.8316 133.92C59.0223 133.328 59.3503 134.84 59.279 135.695C59.0223 138.918 56.8404 142.113 54.8796 144.537C47.3357 153.87 34.879 156.609 23.6273 152.972C4.22561 146.705 -5.92802 117.363 10.4147 99.6514Z" fill="#D9007B"/>
  </g>
  <path d="M37.8781 124.548C37.3793 123.684 36.7432 123.134 35.9674 122.901C35.1944 122.666 34.1079 122.664 32.708 122.896C31.3111 123.126 30.072 123.269 28.9938 123.323C27.9126 123.378 26.9158 123.3 26.0005 123.091C25.092 122.883 24.2355 122.491 23.4839 121.94C22.7187 121.385 22.0394 120.589 21.443 119.556C20.4147 117.775 20.1413 115.987 20.6227 114.191C21.1041 112.396 22.2312 110.86 24.0094 109.58L22.0563 106.197L24.5843 104.738L26.5647 108.168C28.584 107.354 30.4929 107.288 32.2914 107.971C34.0899 108.654 35.5838 110.022 36.7703 112.077L32.2012 114.715C31.4709 113.451 30.6624 112.656 29.7812 112.329C28.897 112.003 28.0169 112.093 27.1437 112.598C26.2795 113.097 25.7514 113.728 25.5593 114.492C25.3675 115.257 25.5223 116.07 26.0213 116.934C26.4837 117.735 27.085 118.245 27.8309 118.461C28.574 118.679 29.7213 118.677 31.2729 118.455C32.8245 118.234 34.1353 118.113 35.205 118.093C36.2747 118.072 37.2511 118.183 38.1371 118.423C39.0058 118.657 39.8194 119.062 40.5308 119.613C41.2427 120.164 41.8754 120.92 42.429 121.879C43.4635 123.67 43.7428 125.448 43.2727 127.209C42.7997 128.972 41.6402 130.519 39.7972 131.85L41.6135 134.996L39.1003 136.447L37.293 133.317C34.997 134.334 32.8819 134.533 30.9447 133.916C29.0074 133.299 27.4151 131.91 26.1678 129.75L30.737 127.112C31.4609 128.366 32.3141 129.155 33.2963 129.48C34.2786 129.806 35.3271 129.646 36.4451 129.001C37.3713 128.466 37.9615 127.799 38.2182 126.997C38.4722 126.197 38.3589 125.381 37.8781 124.548Z" fill="white"/>
  <path fill-rule="evenodd" clip-rule="evenodd" d="M285.173 124.69C259.061 111.27 204.22 126.423 204.22 126.423L158.99 71.329C158.99 71.329 161.278 58.4263 159.85 57.3534C155.164 53.8314 151.685 63.4969 151.685 63.4969C151.685 63.4969 132.738 52.6506 127.363 52.9414C116.731 53.5188 136.787 70.4426 136.787 70.4426C136.787 70.4426 154.871 138.671 174.821 155.778C194.771 172.885 240.26 172.155 256.47 173.089C286.279 174.807 300.344 132.487 285.173 124.69Z" fill="#FAC0E1"/>
  <mask id="mask4_1_2" style="mask-type:luminance" maskUnits="userSpaceOnUse" x="124" y="52" width="168" height="122">
    <path d="M285.173 124.69C259.061 111.27 204.22 126.423 204.22 126.423L158.99 71.329C158.99 71.329 161.278 58.4263 159.85 57.3534C155.164 53.8314 151.685 63.4969 151.685 63.4969C151.685 63.4969 132.738 52.6506 127.363 52.9414C116.731 53.5188 136.787 70.4426 136.787 70.4426C136.787 70.4426 154.871 138.671 174.821 155.778C194.771 172.885 240.26 172.155 256.47 173.089C286.279 174.807 300.344 132.487 285.173 124.69Z" fill="white"/>
  </mask>
  <g mask="url(#mask4_1_2)">
    <path fill-rule="evenodd" clip-rule="evenodd" d="M137.326 71.9079C141.868 76.3981 155.459 140.694 197.498 158.372C206.789 162.278 223.725 155.904 233.795 155.88C238.691 155.868 244.37 154.231 249.174 155.137C253.078 155.872 255.389 159.653 255.985 163.336C258.965 181.747 235.614 187.637 221.943 187.878C218.745 187.933 215.546 187.861 212.36 187.56C208.881 187.232 205.397 186.762 201.967 186.086C166.521 179.097 146.131 106.718 137.326 71.9079Z" fill="#D799BC"/>
    <path fill-rule="evenodd" clip-rule="evenodd" d="M234.095 115.174C228.847 123.246 228.426 134.068 228.248 143.383C228.115 150.228 228.138 156.9 230.448 163.405C232.473 169.102 235.613 175.516 240.165 179.657C249.519 188.155 263.579 183.216 272.928 177.396C289.762 166.917 304.471 142.455 289.958 124.284C287.708 121.466 284.926 118.998 281.881 117.066C276.186 113.453 240.684 116.149 234.095 115.174Z" fill="#F2058C"/>
  </g>
  <path fill-rule="evenodd" clip-rule="evenodd" d="M321.345 137.978C307.797 124.426 250.112 99.5775 245.211 137.216C238.801 186.423 214.885 234.033 214.885 234.033L319.211 233.315C319.211 233.315 334.888 151.53 321.345 137.978Z" fill="#F2058C"/>
  <mask id="mask5_1_2" style="mask-type:luminance" maskUnits="userSpaceOnUse" x="214" y="117" width="113" height="118">
    <path d="M321.345 137.978C307.797 124.426 250.112 99.5775 245.211 137.216C238.801 186.423 214.885 234.033 214.885 234.033L319.211 233.315C319.211 233.315 334.888 151.53 321.345 137.978Z" fill="white"/>
  </mask>
  <g mask="url(#mask5_1_2)">
    <path fill-rule="evenodd" clip-rule="evenodd" d="M328.332 136.839C323.309 160.758 315.562 188.238 296.425 204.71C289.067 211.047 277.373 212.5 267.692 221.415C251.273 236.526 242.243 229.819 228.688 224.857C222.09 222.449 213.626 219.189 206.62 220.065C197.037 221.269 199.803 228.901 204.826 235.322C209.071 240.734 215.626 243.866 221.932 246.195C234.757 250.938 248.792 252.927 262.396 253.511C281.362 254.319 302.36 252.75 319.363 243.538C354.128 224.692 342.313 171.073 328.332 136.839Z" fill="#6600D2"/>
  </g>
  <path fill-rule="evenodd" clip-rule="evenodd" d="M277.993 110.829L293.161 111.049C291.058 116.751 291.996 119.657 294.16 125.006C274.869 162.266 269.898 149.634 276.435 125.349C278.992 121.711 279.839 117.063 277.993 110.829Z" fill="#FAC0E1"/>
  <mask id="mask6_1_2" style="mask-type:luminance" maskUnits="userSpaceOnUse" x="273" y="110" width="22" height="39">
    <path d="M277.993 110.829L293.161 111.049C291.058 116.751 291.996 119.657 294.16 125.006C274.869 162.266 269.898 149.634 276.435 125.349C278.992 121.711 279.839 117.063 277.993 110.829Z" fill="white"/>
  </mask>
  <g mask="url(#mask6_1_2)">
    <path fill-rule="evenodd" clip-rule="evenodd" d="M276.355 119.783C279.124 123.802 283.88 125.435 288.584 124.452C291.294 123.889 293.876 122.18 294.456 119.293C295.044 116.353 293.229 114.02 290.766 112.617C286.922 110.432 279.832 116.975 276.355 119.783Z" fill="#D799BC"/>
    <path fill-rule="evenodd" clip-rule="evenodd" d="M276.993 101.381C276.068 108.463 275.049 115.647 275.525 122.797C275.773 126.513 270.877 143.779 278.62 145.731C285.363 147.427 286.549 149.591 282.067 153.588C277.664 157.509 271.73 157.355 268.134 152.472C266.014 149.6 264.919 145.961 264.276 142.492C262.862 134.856 275.385 108.914 276.993 101.381Z" fill="#D799BC"/>
  </g>
  <path fill-rule="evenodd" clip-rule="evenodd" d="M285.127 92.625C279.261 92.625 274.5 98.9191 274.5 106.672C274.5 114.424 275.518 121.15 281.377 121.15C287.242 121.15 295.748 114.424 295.748 106.672C295.748 98.9191 290.986 92.625 285.127 92.625Z" fill="#FAC0E1"/>
  <path fill-rule="evenodd" clip-rule="evenodd" d="M285.193 103.287C283.618 105.358 280.535 106.012 278.109 105.931C275.938 105.859 273.664 105.317 271.712 104.377C266.275 101.765 266.95 95.2867 269.34 90.7016C271.462 86.6334 275.111 84.1998 279.471 86.6954C280.31 87.1776 280.955 87.8587 281.569 88.6006C283.326 87.8757 285.473 87.9779 287.316 88.1774C288.964 88.3549 290.715 88.6359 292.26 89.2531C299.198 92.0279 300.755 99.7672 298.894 106.248C298.097 109.012 296.589 111.84 294.37 113.723C293.372 114.566 292.016 115.394 290.642 115.127C287.097 114.44 290.593 111.052 290.977 109.344C291.165 108.511 291.147 107.12 290.156 106.799C289.572 106.608 289 106.865 288.55 107.236C287.334 108.239 286.732 109.827 285.412 110.745C284.233 111.567 283.874 110.579 284.196 109.541C284.306 109.187 284.433 108.841 284.567 108.494C284.829 107.801 285.108 104.025 285.193 103.287Z" fill="#032C2F"/>
  <path d="M149.659 160.076L141.584 150.011C141.584 150.011 163.707 144.16 167.787 141.619C173.613 137.995 181.129 135.712 190.342 134.771C199.56 133.83 206.225 132.465 210.342 130.677C214.465 128.888 217.779 126.258 220.285 122.786C227.849 112.308 226.791 103.578 217.122 96.5959C212.531 93.2842 207.843 92.043 203.045 92.8725C198.247 93.7019 194.002 96.5521 190.293 101.423L163.323 81.9552L155.236 71.5238C155.236 71.5238 184.802 63.464 194.884 62.4375C207.247 61.1787 219.944 65.2488 232.964 74.647C246.111 84.1347 254.016 94.6743 256.68 106.265C259.349 117.857 256.497 129.45 248.13 141.044C244.323 146.314 239.555 150.44 233.821 153.42C228.087 156.401 220.212 158.618 210.208 160.07L197.505 161.794C189.527 162.919 183.002 166.273 177.93 171.857L173.467 177.262L149.659 160.076ZM126.351 186.682C129.349 182.528 133.234 180.12 138.002 179.46C142.769 178.799 147.355 180.057 151.757 183.234C156.16 186.412 158.793 190.367 159.669 195.102C160.544 199.833 159.48 204.278 156.482 208.432C153.527 212.524 149.714 214.908 145.026 215.583C140.343 216.258 135.74 214.963 131.215 211.691C126.685 208.426 124.009 204.467 123.17 199.809C122.337 195.151 123.395 190.774 126.351 186.682Z" fill="#023C41"/>
  <path d="M141.493 149.524C147.758 140.845 153.84 134.714 159.667 131.1C165.498 127.479 173.004 125.185 182.181 124.223C191.427 123.301 198.074 121.927 202.195 120.134C206.312 118.347 209.657 115.741 212.165 112.266C219.731 101.785 218.639 93.0305 208.959 86.0435C204.408 82.7583 199.672 81.4852 194.879 82.3161C190.087 83.1471 185.868 86.02 182.158 90.8892L155.17 71.4091C163.844 59.6614 174.381 53.1676 186.717 51.8824C199.112 50.6498 211.789 54.7011 224.802 64.0943C237.944 73.5799 245.842 84.1168 248.564 95.7446C251.218 107.333 248.33 118.898 239.964 130.488C236.156 135.764 231.411 139.906 225.662 142.874C219.976 145.888 212.061 148.072 202.045 149.521L189.376 151.267C181.365 152.369 174.847 155.727 169.82 161.342L165.34 166.737L141.493 149.524ZM118.19 176.134C121.189 171.98 125.075 169.568 129.839 168.911C134.608 168.248 139.233 169.54 143.592 172.686C148.015 175.879 150.634 179.816 151.507 184.551C152.384 189.28 151.319 193.727 148.32 197.881C145.368 201.971 141.583 204.378 136.902 205.055C132.221 205.732 127.604 204.427 123.052 201.142C118.565 197.903 115.874 193.933 115.042 189.276C114.21 184.62 115.238 180.223 118.19 176.134Z" fill="#CAA5F1"/>
  <path fill-rule="evenodd" clip-rule="evenodd" d="M318.019 137.876C288.818 140.915 251.182 183.584 251.182 183.584L183.19 162.18C183.19 162.18 178.052 150.126 176.27 150.008C170.42 149.621 172.792 159.616 172.792 159.616C172.792 159.616 154.773 157.907 151.629 159C141.571 162.502 164.114 173.576 164.114 173.576C164.114 173.576 216.557 220.819 242.614 224.236C268.671 227.654 306.362 202.174 320.445 194.094C346.344 179.236 334.985 136.111 318.019 137.876Z" fill="#FAC0E1"/>
  <mask id="mask7_1_2" style="mask-type:luminance" maskUnits="userSpaceOnUse" x="149" y="137" width="187" height="88">
    <path d="M318.019 137.876C288.818 140.915 251.182 183.584 251.182 183.584L183.19 162.18C183.19 162.18 178.052 150.126 176.27 150.008C170.42 149.621 172.792 159.616 172.792 159.616C172.792 159.616 154.773 157.907 151.629 159C141.571 162.502 164.114 173.576 164.114 173.576C164.114 173.576 216.557 220.819 242.614 224.236C268.671 227.654 306.362 202.174 320.445 194.094C346.344 179.236 334.985 136.111 318.019 137.876Z" fill="white"/>
  </mask>
  <g mask="url(#mask7_1_2)">
    <path fill-rule="evenodd" clip-rule="evenodd" d="M283.704 161.493C282.414 167.789 283.345 175.51 285.844 181.343C287.614 185.456 289.748 189.406 291.481 193.528C292.193 195.218 293.336 197.431 292.77 199.316C292.114 201.505 289.578 203.245 287.76 204.364C286.118 205.373 284.354 206.188 282.548 206.845C279.495 207.957 276.297 208.663 273.11 209.271C268.1 210.226 262.967 210.736 257.877 211.053C250.148 211.527 242.249 211.46 234.569 210.341C217.232 207.811 201.062 200.843 186.565 191.193C181.019 187.5 175.558 183.633 170.268 179.58C169.003 178.608 164.235 173.956 165.044 178.349C165.744 182.165 167.951 185.901 169.921 189.163C174.038 195.978 178.909 202.278 184.619 207.83C189.983 213.047 196.033 217.584 202.437 221.433C232.301 239.372 268.762 236.769 299.18 221.518C312.935 214.622 328.077 204.795 334.565 190.201C336.596 185.621 283.302 166.451 283.704 161.493Z" fill="#D799BC"/>
    <path fill-rule="evenodd" clip-rule="evenodd" d="M278.431 151.827C278.45 161.455 284.014 170.747 288.958 178.644C292.588 184.448 296.255 190.022 301.746 194.206C306.556 197.869 312.692 201.524 318.767 202.503C331.245 204.503 340.318 192.681 344.964 182.697C353.332 164.72 352.273 136.196 330.187 128.915C326.763 127.786 323.084 127.24 319.478 127.287C312.735 127.375 284.482 149.041 278.431 151.827Z" fill="#F2058C"/>
  </g>
  <path fill-rule="evenodd" clip-rule="evenodd" d="M56.7788 232.903H328.353V234.687H56.7788V232.903Z" fill="#032C2F"/>
  <path fill-rule="evenodd" clip-rule="evenodd" d="M18.6157 233.128H47.7132V235.023H18.6157V233.128Z" fill="#032C2F"/>
  <path fill-rule="evenodd" clip-rule="evenodd" d="M15.3789 21.5271C15.3789 11.3658 29.3715 0.977814 39.5323 0.977814H107.92C118.081 0.977814 126.33 9.22761 126.33 19.389V56.2109C126.33 66.3723 118.081 74.6221 107.92 74.6221V97.6449C107.92 99.0035 99.3388 106.484 98.4258 105.476C90.1145 96.2608 79.4427 74.6221 79.4427 74.6221H39.5323C29.3715 74.6221 21.1216 66.3723 21.1216 56.2109L15.3789 21.5271Z" fill="#023C41"/>
  <path fill-rule="evenodd" clip-rule="evenodd" d="M14.6437 24.3344C14.6437 14.173 22.8935 5.92325 33.0544 5.92325H101.442C111.603 5.92325 119.853 14.173 119.853 24.3344V61.1563C119.853 71.3177 111.603 79.5675 101.442 79.5675V102.59C101.442 103.254 101.24 103.902 100.865 104.449C100.489 104.996 99.9562 105.416 99.3368 105.654C98.7168 105.892 98.0393 105.937 97.3933 105.783C96.7474 105.628 96.1634 105.282 95.718 104.79C87.4067 95.5742 72.9648 79.5675 72.9648 79.5675H33.0544C22.8935 79.5675 14.6437 71.3177 14.6437 61.1563V24.3344Z" fill="#39BDC8"/>
  <path fill-rule="evenodd" clip-rule="evenodd" d="M31.6724 24.0259C22.5755 33.8579 23.1712 49.199 33.0011 58.2939C37.2161 62.1937 42.6797 64.472 48.4167 64.7215L49.2082 46.5515C47.7731 46.4896 46.4066 45.9202 45.3523 44.9446C42.8959 42.6719 42.7469 38.8356 45.0216 36.377L31.6724 24.0259ZM52.969 64.492C58.4567 63.6907 63.5044 61.0335 67.2711 56.963C76.0807 47.4416 75.8361 32.6731 66.716 23.4473L58.0934 31.9724C62.6524 36.5843 62.7746 43.9686 58.3709 48.7282C56.4867 50.7646 53.9635 52.092 51.2209 52.4937L52.969 64.492ZM62.4905 20.0371C53.9694 14.6133 42.9784 15.0401 34.9035 21.1084L40.078 27.9949C45.2844 24.0835 52.3717 23.8082 57.8657 27.3041L62.4905 20.0371Z" fill="white"/>
  <path fill-rule="evenodd" clip-rule="evenodd" d="M100.347 25.5624C100.346 24.8578 100.065 24.1824 99.5667 23.6845C99.0681 23.1866 98.3923 22.9069 97.6877 22.9067H83.0678C82.3656 22.9067 81.6875 23.1867 81.1922 23.6849C80.945 23.9311 80.7489 24.2237 80.6152 24.5459C80.4815 24.8681 80.4128 25.2135 80.4131 25.5624V25.6225C80.4131 26.3266 80.692 27.0023 81.1922 27.5C81.4383 27.7467 81.7306 27.9424 82.0525 28.0759C82.3743 28.2095 82.7193 28.2782 83.0678 28.2781H97.6877C98.3923 28.278 99.0681 27.9983 99.5667 27.5004C100.065 27.0025 100.346 26.3271 100.347 25.6225V25.5624Z" fill="white"/>
  <path fill-rule="evenodd" clip-rule="evenodd" d="M112.776 38.3089C112.776 37.7236 112.542 37.1621 112.128 36.748C111.714 36.334 111.152 36.1015 110.566 36.1015H82.6194C82.0338 36.1015 81.4716 36.334 81.0577 36.748C80.6439 37.1621 80.4095 37.7236 80.4095 38.3089V38.3109C80.4095 38.8962 80.6439 39.4577 81.0577 39.8717C81.4716 40.2858 82.0338 40.5183 82.6194 40.5183H110.566C111.152 40.5183 111.714 40.2858 112.128 39.8717C112.542 39.4577 112.776 38.8962 112.776 38.3109V38.3089Z" fill="white"/>
  <path fill-rule="evenodd" clip-rule="evenodd" d="M112.776 45.7348C112.776 45.1496 112.542 44.588 112.128 44.174C111.714 43.7599 111.152 43.5274 110.566 43.5274H82.6194C82.0338 43.5274 81.4716 43.7599 81.0577 44.174C80.6439 44.588 80.4095 45.1496 80.4095 45.7348V45.7368C80.4095 46.3221 80.6439 46.8836 81.0577 47.2977C81.4716 47.7117 82.0338 47.9442 82.6194 47.9442H110.566C111.152 47.9442 111.714 47.7117 112.128 47.2977C112.542 46.8836 112.776 46.3221 112.776 45.7368V45.7348Z" fill="white"/>
  <path fill-rule="evenodd" clip-rule="evenodd" d="M112.776 53.1602C112.776 52.5749 112.542 52.0134 112.128 51.5993C111.714 51.1853 111.152 50.9528 110.566 50.9528H82.6194C82.0338 50.9528 81.4716 51.1853 81.0577 51.5993C80.6439 52.0134 80.4095 52.5749 80.4095 53.1602V53.1622C80.4095 53.7474 80.6439 54.309 81.0577 54.723C81.4716 55.1371 82.0338 55.3696 82.6194 55.3696H110.566C111.152 55.3696 111.714 55.1371 112.128 54.723C112.542 54.309 112.776 53.7474 112.776 53.1622V53.1602Z" fill="white"/>
</svg>
